<svg width="96" height="35" viewBox="0 0 96 35" fill="none" xmlns="http://www.w3.org/2000/svg">
<g id="OBJECTS">
<path id="Vector" d="M7.4385 8.71313H12.068V29.4634C12.068 30.8962 10.9172 32.0567 9.49651 32.0567H5.12476V29.7234H6.15376C6.86412 29.7234 7.44053 29.1421 7.44053 28.4257V8.71313H7.4385Z" fill="white"/>
<path id="Vector_2" d="M86.1423 21.5526H84.5998C83.5343 21.5526 82.6697 20.6806 82.6697 19.6061V8.71105H78.0402V21.5505H76.4977C75.4321 21.5505 74.5675 20.6786 74.5675 19.604V8.70901H69.938V21.5485H66.0798C65.0142 21.5485 64.1496 20.6765 64.1496 19.602V13.8956C64.1496 11.0301 61.846 8.70696 59.0046 8.70696H56.9466C56.4493 8.70696 56.0454 8.29965 56.0454 7.79819V6.37158H51.4159V9.09585C51.4159 10.1704 52.2805 11.0403 53.3461 11.0403H56.9466C58.3673 11.0403 59.5181 12.2008 59.5181 13.6336V21.5444H57.9756C56.91 21.5444 56.0454 20.6725 56.0454 19.5979V13.9611C56.0454 12.9008 55.4061 11.947 54.4278 11.552L47.9981 8.95872C46.3094 8.27714 44.4706 9.53181 44.4706 11.3678V21.5423H42.9281C41.8626 21.5423 41 20.6704 41 19.5958V8.70082H36.3705V21.5403H35.9849C34.9193 21.5403 34.0568 20.6684 34.0568 19.5938V8.69877H29.4272V21.5383H27.8848C26.8192 21.5383 25.9566 20.6663 25.9566 19.5918V11.292C25.9566 9.8593 24.8059 8.69877 23.3851 8.69877H16.9554C15.5346 8.69877 14.3839 9.8593 14.3839 11.292V18.0362H19.0134V13.3675C19.0134 12.7228 19.5309 12.2008 20.1703 12.2008C20.8096 12.2008 21.3271 12.7228 21.3271 13.3675V21.5383H14.3818V26.2172L25.9566 26.207H44.5904C44.838 27.0175 45.4712 27.6766 46.3074 27.9283L52.7372 29.8728C54.3872 30.3722 56.0475 29.1257 56.0475 27.388V26.2049H90.7698V8.69673H86.1403V21.5362L86.1423 21.5526ZM51.4261 25.6994C51.4261 26.1333 51.0141 26.4444 50.602 26.3216L50.4884 26.2888C49.6684 26.0453 49.1042 25.2859 49.1042 24.4222V13.1649C49.1042 12.7084 49.5588 12.3953 49.981 12.5611L50.1982 12.647C50.939 12.9377 51.4261 13.6581 51.4261 14.4584V25.6994Z" fill="white"/>
<path id="Vector_3" d="M34.0587 2.87573H29.4292V7.54445H34.0587V2.87573Z" fill="#EF413D"/>
<path id="Vector_4" d="M74.5695 2.87573H69.9399V7.54445H74.5695V2.87573Z" fill="#EF413D"/>
<path id="Vector_5" d="M82.6696 2.87573H78.04V7.54445H82.6696V2.87573Z" fill="#EF413D"/>
<path id="Vector_6" d="M90.7718 2.87573H86.1423V7.54445H90.7718V2.87573Z" fill="#EF413D"/>
<path id="Vector_7" d="M37.5314 27.3879H32.9019V32.0567H37.5314V27.3879Z" fill="#EF413D"/>
</g>
</svg>
