<svg width="20" height="20" viewBox="0 0 20 20" fill="none" xmlns="http://www.w3.org/2000/svg">
<g id="arrows">
<g id="exit-right">
<g id="Exit">
<path id="Vector" opacity="0.3" d="M13.4498 4C13.403 2.94955 12.9445 1.95979 12.1734 1.24488C11.4024 0.529965 10.3808 0.147412 9.32984 0.179999H4.99984C3.94208 0.13662 2.91025 0.514336 2.13048 1.23038C1.35071 1.94641 0.886594 2.94237 0.839844 4V16C0.884021 17.0594 1.34702 18.0579 2.12707 18.7761C2.90713 19.4943 3.94042 19.8733 4.99984 19.83H9.36984C10.4157 19.8519 11.4284 19.4632 12.1911 18.7472C12.9537 18.0313 13.4056 17.0451 13.4498 16V4Z" fill="#3E97FF"/>
<path id="Vector_2" d="M6.68994 9.24999H16.5999L14.9999 7.60999C14.8595 7.46936 14.7806 7.27874 14.7806 7.07999C14.7806 6.88123 14.8595 6.69061 14.9999 6.54999C15.0689 6.47923 15.1513 6.42299 15.2423 6.38459C15.3334 6.3462 15.4311 6.32642 15.5299 6.32642C15.6287 6.32642 15.7265 6.3462 15.8176 6.38459C15.9086 6.42299 15.991 6.47923 16.0599 6.54999L18.9899 9.46999C19.1304 9.61061 19.2093 9.80123 19.2093 9.99999C19.2093 10.1987 19.1304 10.3894 18.9899 10.53L15.9999 13.45C15.931 13.5206 15.8486 13.5764 15.7575 13.6142C15.6664 13.6521 15.5686 13.671 15.4699 13.67C15.3714 13.6705 15.2738 13.6512 15.1827 13.6135C15.0917 13.5757 15.0092 13.5201 14.9399 13.45C14.7995 13.3094 14.7206 13.1187 14.7206 12.92C14.7206 12.7212 14.7995 12.5306 14.9399 12.39L16.5899 10.75H6.68994C6.49103 10.75 6.30026 10.671 6.15961 10.5303C6.01896 10.3897 5.93994 10.1989 5.93994 9.99999C5.93994 9.80107 6.01896 9.61031 6.15961 9.46966C6.30026 9.329 6.49103 9.24999 6.68994 9.24999Z" fill="#3E97FF"/>
</g>
</g>
</g>
</svg>
