<svg width="17" height="14" viewBox="0 0 17 14" fill="none" xmlns="http://www.w3.org/2000/svg">
<g id="arrows">
<g id="black-left-line">
<path id="Vector" d="M1.29826 6.31251H8.76909V3.33334C8.76001 3.22315 8.78674 3.11298 8.84531 3.01921C8.90389 2.92544 8.99117 2.85309 9.09417 2.81292C9.19718 2.77274 9.3104 2.7669 9.41699 2.79626C9.52358 2.82561 9.61784 2.8886 9.68576 2.97584L13.3524 6.64251C13.4487 6.74026 13.5027 6.87196 13.5027 7.00917C13.5027 7.14638 13.4487 7.27809 13.3524 7.37584L9.68576 11.0425C9.61416 11.1253 9.51834 11.1836 9.41185 11.209C9.30536 11.2344 9.19357 11.2258 9.09226 11.1843C8.99096 11.1427 8.90526 11.0704 8.84727 10.9775C8.78929 10.8847 8.76194 10.7759 8.76909 10.6667V7.68751H1.29826C1.11592 7.68751 0.941053 7.61507 0.812122 7.48614C0.683191 7.35721 0.610759 7.18234 0.610759 7.00001C0.610759 6.81767 0.683191 6.6428 0.812122 6.51387C0.941053 6.38494 1.11592 6.31251 1.29826 6.31251Z" fill="#A1A5B7"/>
<path id="Vector_2" opacity="0.3" d="M16.1666 13.5633C16.349 13.5633 16.5238 13.4909 16.6528 13.3619C16.7817 13.233 16.8541 13.0581 16.8541 12.8758V1.12415C16.8541 0.941809 16.7817 0.766941 16.6528 0.63801C16.5238 0.509078 16.349 0.436646 16.1666 0.436646C15.9843 0.436646 15.8094 0.509078 15.6805 0.63801C15.5516 0.766941 15.4791 0.941809 15.4791 1.12415V12.8758C15.4779 12.9664 15.4948 13.0564 15.5289 13.1404C15.5631 13.2243 15.6137 13.3006 15.6777 13.3647C15.7418 13.4288 15.8181 13.4794 15.9021 13.5135C15.986 13.5476 16.076 13.5645 16.1666 13.5633Z" fill="#A1A5B7"/>
</g>
</g>
</svg>
