<svg width="9" height="14" viewBox="0 0 9 14" fill="none" xmlns="http://www.w3.org/2000/svg">
<g id="arrows">
<path id="Vector" d="M7.52963 13.9201C7.39802 13.9209 7.26756 13.8956 7.14572 13.8459C7.02388 13.7961 6.91307 13.7228 6.81963 13.6301L0.889626 7.7101C0.706892 7.51846 0.60331 7.26486 0.599626 7.0001C0.598865 6.86849 0.62409 6.73803 0.673855 6.61619C0.723619 6.49435 0.796945 6.38354 0.889626 6.2901L6.81963 0.370096C7.01093 0.206269 7.257 0.120663 7.50868 0.130384C7.76036 0.140106 7.9991 0.244438 8.17719 0.422533C8.35528 0.600627 8.45962 0.839366 8.46934 1.09104C8.47906 1.34272 8.39345 1.58879 8.22963 1.7801L2.99963 7.0001L8.20963 12.2201C8.39588 12.4075 8.50042 12.6609 8.50042 12.9251C8.50042 13.1893 8.39588 13.4427 8.20963 13.6301C8.02832 13.8101 7.78501 13.9138 7.52963 13.9201Z" fill="#3E97FF"/>
</g>
</svg>
