<svg width="17" height="14" viewBox="0 0 17 14" fill="none" xmlns="http://www.w3.org/2000/svg">
<g id="arrows">
<g id="black-left-line">
<path id="Vector" d="M1.29838 6.31251H8.76921V3.33334C8.76013 3.22315 8.78686 3.11298 8.84544 3.01921C8.90401 2.92544 8.99129 2.85309 9.09429 2.81292C9.1973 2.77274 9.31052 2.7669 9.41711 2.79626C9.5237 2.82561 9.61797 2.8886 9.68588 2.97584L13.3525 6.64251C13.4488 6.74026 13.5028 6.87196 13.5028 7.00917C13.5028 7.14638 13.4488 7.27809 13.3525 7.37584L9.68588 11.0425C9.61428 11.1253 9.51847 11.1836 9.41197 11.209C9.30548 11.2344 9.19369 11.2258 9.09238 11.1843C8.99108 11.1427 8.90538 11.0704 8.8474 10.9775C8.78941 10.8847 8.76206 10.7759 8.76921 10.6667V7.68751H1.29838C1.11604 7.68751 0.941175 7.61507 0.812244 7.48614C0.683313 7.35721 0.610881 7.18234 0.610881 7.00001C0.610881 6.81767 0.683313 6.6428 0.812244 6.51387C0.941175 6.38494 1.11604 6.31251 1.29838 6.31251Z" fill="#5278FF"/>
<path id="Vector_2" opacity="0.3" d="M16.1667 13.5633C16.349 13.5633 16.5239 13.4909 16.6528 13.3619C16.7818 13.233 16.8542 13.0581 16.8542 12.8758V1.12415C16.8542 0.941809 16.7818 0.766941 16.6528 0.63801C16.5239 0.509078 16.349 0.436646 16.1667 0.436646C15.9844 0.436646 15.8095 0.509078 15.6806 0.63801C15.5516 0.766941 15.4792 0.941809 15.4792 1.12415V12.8758C15.478 12.9664 15.4949 13.0564 15.529 13.1404C15.5631 13.2243 15.6137 13.3006 15.6778 13.3647C15.7419 13.4288 15.8182 13.4794 15.9021 13.5135C15.9861 13.5476 16.0761 13.5645 16.1667 13.5633Z" fill="#5278FF"/>
</g>
</g>
</svg>
