<svg width="10" height="10" viewBox="0 0 10 10" fill="none" xmlns="http://www.w3.org/2000/svg">
<g id="Calendar" clip-path="url(#clip0_380_639)">
<path id="Vector" d="M5.00572 8.03886C5.9539 8.03886 6.72531 7.26746 6.72531 6.3192C6.72531 5.37102 5.9539 4.59961 5.00572 4.59961C4.05746 4.59961 3.28606 5.37102 3.28606 6.3192C3.28606 7.26746 4.05746 8.03886 5.00572 8.03886ZM3.99269 6.04858C4.10576 5.93544 4.28909 5.93544 4.40224 6.04858L4.7802 6.42654L5.60921 5.59753C5.72235 5.48447 5.90569 5.48447 6.01875 5.59753C6.13182 5.7106 6.13182 5.89394 6.01875 6.00708L4.98497 7.04086C4.93065 7.09518 4.85703 7.12563 4.7802 7.12563C4.70337 7.12563 4.62975 7.09518 4.57542 7.04086L3.99269 6.45805C3.87962 6.34499 3.87962 6.16165 3.99269 6.04858Z" fill="#5278FF"/>
<path id="Vector_2" d="M0.214844 9.06339C0.214844 9.57974 0.634995 9.99989 1.15135 9.99989H8.85994C9.3763 9.99989 9.79645 9.57974 9.79645 9.06339V3.21729H0.214844V9.06339ZM5.00572 4.02028C6.27327 4.02028 7.30446 5.05147 7.30446 6.31902C7.30446 7.58656 6.27327 8.61783 5.00572 8.61783C3.73817 8.61783 2.70691 7.58656 2.70691 6.31902C2.70691 5.05147 3.73817 4.02028 5.00572 4.02028Z" fill="#5278FF"/>
<path id="Vector_3" d="M9.79637 2.63818V1.74608C9.79637 1.22964 9.3763 0.80957 8.85986 0.80957H8.33191V1.32967C8.33191 1.48973 8.20213 1.6192 8.0423 1.6192C7.88231 1.6192 7.75276 1.48973 7.75276 1.32967V0.80957H7.18361V1.32967C7.18361 1.48973 7.05414 1.6192 6.89407 1.6192C6.73424 1.6192 6.60446 1.48973 6.60446 1.32967V0.80957H3.40698V1.32967C3.40698 1.48973 3.27728 1.6192 3.11745 1.6192C2.95738 1.6192 2.82784 1.48973 2.82784 1.32967V0.80957H2.25876V1.32967C2.25876 1.48973 2.12898 1.6192 1.96915 1.6192C1.80931 1.6192 1.67961 1.48973 1.67961 1.32967V0.80957H1.15143C0.634995 0.80957 0.21492 1.22964 0.21492 1.74608V2.63818H9.79637Z" fill="#5278FF"/>
<path id="Vector_4" d="M8.33191 0.289536C8.33191 0.1297 8.20213 0 8.0423 0C7.88231 0 7.75276 0.1297 7.75276 0.289536V0.809631H8.33191V0.289536Z" fill="#5278FF"/>
<path id="Vector_5" d="M7.18361 0.289536C7.18361 0.1297 7.05414 0 6.89407 0C6.73424 0 6.60446 0.1297 6.60446 0.289536V0.809631H7.18361V0.289536Z" fill="#5278FF"/>
<path id="Vector_6" d="M3.40698 0.289536C3.40698 0.1297 3.27728 0 3.11745 0C2.95738 0 2.82784 0.1297 2.82784 0.289536V0.809631H3.40698V0.289536Z" fill="#5278FF"/>
<path id="Vector_7" d="M2.25876 0.289536C2.25876 0.1297 2.12898 0 1.96915 0C1.80931 0 1.67961 0.1297 1.67961 0.289536V0.809631H2.25876V0.289536Z" fill="#5278FF"/>
</g>
<defs>
<clipPath id="clip0_380_639">
<rect width="10" height="10" fill="white"/>
</clipPath>
</defs>
</svg>
