<svg width="20" height="22" viewBox="0 0 20 22" fill="none" xmlns="http://www.w3.org/2000/svg">
<path d="M5.73 0.97998H2.83C1.26703 0.97998 0 2.24701 0 3.80998V6.70998C0 8.27295 1.26703 9.53998 2.83 9.53998H5.73C7.29297 9.53998 8.56 8.27295 8.56 6.70998V3.80998C8.56 2.24701 7.29297 0.97998 5.73 0.97998Z" fill="#3E97FF"/>
<path opacity="0.3" d="M17.1695 1.01001H14.2695C12.7065 1.01001 11.4395 2.27704 11.4395 3.84001V6.74001C11.4395 8.30298 12.7065 9.57001 14.2695 9.57001H17.1695C18.7324 9.57001 19.9995 8.30298 19.9995 6.74001V3.84001C19.9995 2.27704 18.7324 1.01001 17.1695 1.01001Z" fill="#3E97FF"/>
<path opacity="0.3" d="M5.73 12.43H2.83C1.26703 12.43 0 13.697 0 15.26V18.16C0 19.723 1.26703 20.99 2.83 20.99H5.73C7.29297 20.99 8.56 19.723 8.56 18.16V15.26C8.56 13.697 7.29297 12.43 5.73 12.43Z" fill="#3E97FF"/>
<path d="M17.1695 12.46H14.2695C12.7065 12.46 11.4395 13.727 11.4395 15.29V18.19C11.4395 19.7529 12.7065 21.02 14.2695 21.02H17.1695C18.7324 21.02 19.9995 19.7529 19.9995 18.19V15.29C19.9995 13.727 18.7324 12.46 17.1695 12.46Z" fill="#3E97FF"/>
</svg>
