<svg width="12" height="12" viewBox="0 0 12 12" fill="none" xmlns="http://www.w3.org/2000/svg">
<g id="arrows">
<g id="cross">
<path id="Vector" d="M10.9997 10.93C10.8123 11.1162 10.5589 11.2208 10.2947 11.2208C10.0305 11.2208 9.77707 11.1162 9.5897 10.93L1.0497 2.48997C0.955976 2.397 0.881582 2.2864 0.830813 2.16454C0.780044 2.04268 0.753906 1.91198 0.753906 1.77997C0.753906 1.64796 0.780044 1.51725 0.830813 1.39539C0.881582 1.27353 0.955976 1.16293 1.0497 1.06997C1.23707 0.883717 1.49052 0.779175 1.7547 0.779175C2.01889 0.779175 2.27234 0.883717 2.4597 1.06997L10.9997 9.50997C11.0934 9.60293 11.1678 9.71353 11.2186 9.83539C11.2694 9.95725 11.2955 10.088 11.2955 10.22C11.2955 10.352 11.2694 10.4827 11.2186 10.6045C11.1678 10.7264 11.0934 10.837 10.9997 10.93Z" fill="#3E97FF"/>
<path id="Vector_2" opacity="0.3" d="M2.46041 11C2.26945 11.1936 2.00941 11.3034 1.73748 11.3053C1.46555 11.3072 1.20402 11.2009 1.01041 11.01C0.8168 10.819 0.706978 10.559 0.705103 10.287C0.703227 10.0151 0.809451 9.75358 1.00041 9.55997L9.54041 0.999971C9.73136 0.806362 9.99141 0.696541 10.2633 0.694666C10.5353 0.69279 10.7968 0.799014 10.9904 0.98997C11.184 1.18093 11.2938 1.44097 11.2957 1.7129C11.2976 1.98483 11.1914 2.24636 11.0004 2.43997L2.46041 11Z" fill="#3E97FF"/>
</g>
</g>
</svg>
