<svg width="40" height="40" viewBox="0 0 40 40" fill="none" xmlns="http://www.w3.org/2000/svg">
<g id="social-media">
<g id="dribbble">
<path id="Vector" d="M23.6226 11.6434C26.5397 10.2981 29.2297 8.50696 31.5959 6.33423C31.7342 6.21228 31.8433 6.06071 31.915 5.89079C31.9866 5.72088 32.0191 5.53698 32.0099 5.3528C32.0006 5.16862 31.95 4.98888 31.8618 4.82696C31.7735 4.66504 31.6499 4.5251 31.5001 4.41756C28.1785 1.9367 24.1458 0.592468 20.0001 0.584229C19.2416 0.618929 18.4862 0.702155 17.7384 0.833395C17.5319 0.865356 17.3365 0.947975 17.1697 1.07387C17.003 1.19977 16.87 1.36502 16.7826 1.55486C16.6953 1.7447 16.6564 1.95322 16.6693 2.16178C16.6822 2.37035 16.7466 2.57246 16.8567 2.75006C18.7014 5.43021 20.3908 8.21395 21.9167 11.0876C22.0723 11.3845 22.3377 11.6089 22.6565 11.7128C22.9752 11.8166 23.3219 11.7917 23.6226 11.6434Z" fill="#5278FF"/>
<path id="Vector_2" d="M18.0834 12.1033C16.4049 9.06011 14.5423 6.12215 12.5059 3.30583C12.3323 3.06537 12.0773 2.89598 11.7884 2.82902C11.4994 2.76207 11.196 2.80209 10.9343 2.94167C6.50472 5.29853 3.16458 9.2847 1.61925 14.0583C1.5522 14.2447 1.53053 14.4443 1.55603 14.6407C1.58153 14.837 1.65348 15.0245 1.7659 15.1875C1.87833 15.3505 2.02799 15.4844 2.20248 15.578C2.37697 15.6716 2.57127 15.7223 2.76925 15.7258C7.70415 15.7877 12.6244 15.1751 17.3934 13.905C17.5687 13.847 17.7289 13.7508 17.8625 13.6233C17.996 13.4958 18.0996 13.3402 18.1656 13.1678C18.2316 12.9953 18.2585 12.8104 18.2443 12.6263C18.2301 12.4422 18.1751 12.2636 18.0834 12.1033Z" fill="#5278FF"/>
<path id="Vector_3" opacity="0.3" d="M26.7659 18.7542C30.3973 18.2006 34.099 18.311 37.6909 19.08C37.8884 19.1214 38.0929 19.1149 38.2874 19.0612C38.4819 19.0074 38.6607 18.9079 38.8089 18.771C38.9571 18.634 39.0704 18.4636 39.1393 18.274C39.2082 18.0844 39.2308 17.881 39.2051 17.6808C38.8472 14.6767 37.7832 11.7999 36.1001 9.28585C35.9949 9.13516 35.8577 9.00961 35.6982 8.91821C35.5388 8.8268 35.3611 8.7718 35.1779 8.75714C34.9947 8.74249 34.8106 8.76854 34.6386 8.83344C34.4667 8.89834 34.3112 9.00047 34.1834 9.13251C31.5842 11.5525 28.6222 13.5509 25.4051 15.055C25.1056 15.1927 24.8729 15.4435 24.7579 15.7525C24.6429 16.0614 24.6551 16.4034 24.7918 16.7033L25.4051 18.0258C25.5142 18.2847 25.7089 18.4983 25.9566 18.6309C26.2043 18.7634 26.49 18.807 26.7659 18.7542Z" fill="#5278FF"/>
<path id="Vector_4" opacity="0.3" d="M21.495 18.6967L21.15 17.9492C21.0178 17.6816 20.7951 17.4695 20.5216 17.3503C20.248 17.231 19.9411 17.2123 19.655 17.2975C14.4174 18.8509 8.97979 19.6259 3.5167 19.5975H1.98337C1.81488 19.5948 1.6476 19.6264 1.49165 19.6902C1.3357 19.754 1.19433 19.8488 1.07607 19.9689C0.957817 20.0889 0.865145 20.2317 0.803661 20.3886C0.742178 20.5455 0.713162 20.7132 0.718368 20.8817C0.77028 22.1728 0.943543 23.4563 1.23587 24.715C1.84759 27.0883 2.90096 29.3251 4.34087 31.3083C4.45855 31.4669 4.61171 31.5957 4.78811 31.6845C4.96451 31.7732 5.15923 31.8195 5.3567 31.8195C5.55417 31.8195 5.7489 31.7732 5.92529 31.6845C6.10169 31.5957 6.25486 31.4669 6.37253 31.3083C10.1366 26.4482 15.1051 22.6558 20.7859 20.3067C21.0931 20.1868 21.3403 19.95 21.4732 19.6482C21.6061 19.3464 21.614 19.0042 21.495 18.6967Z" fill="#5278FF"/>
<path id="Vector_5" d="M27.82 24.0059C28.9709 27.2386 29.912 30.5421 30.6375 33.8959C30.6825 34.1098 30.782 34.3084 30.9265 34.4723C31.071 34.6363 31.2556 34.76 31.4621 34.8314C31.6686 34.9028 31.8901 34.9195 32.105 34.8798C32.32 34.8402 32.5209 34.7455 32.6884 34.6051C35.7174 31.9714 37.8539 28.462 38.8025 24.5618C38.8668 24.2398 38.8053 23.9053 38.6306 23.6273C38.4559 23.3492 38.1814 23.1486 37.8634 23.0668C34.9389 22.3407 31.9159 22.0947 28.9125 22.3384C28.721 22.3544 28.5357 22.4138 28.3706 22.5121C28.2055 22.6104 28.065 22.7451 27.9597 22.9058C27.8544 23.0665 27.7871 23.2491 27.7629 23.4397C27.7387 23.6304 27.7582 23.824 27.82 24.0059Z" fill="#5278FF"/>
<path id="Vector_6" d="M22.3192 23.8335C16.9404 25.9707 12.2851 29.6018 8.90258 34.2985C8.80386 34.4307 8.73284 34.5816 8.69378 34.7419C8.65472 34.9023 8.64843 35.0689 8.67527 35.2317C8.70211 35.3946 8.76154 35.5503 8.85 35.6897C8.93846 35.829 9.05413 35.9491 9.19008 36.0426C11.6949 37.7285 14.559 38.8058 17.5539 39.1885C20.5489 39.5712 23.5918 39.2487 26.4401 38.2468C26.72 38.1433 26.9543 37.9442 27.1017 37.6847C27.249 37.4251 27.2998 37.1219 27.2451 36.8285C26.4638 32.6488 25.3223 28.5446 23.8334 24.5618C23.7139 24.2761 23.4938 24.0442 23.2147 23.9099C22.9356 23.7757 22.617 23.7485 22.3192 23.8335Z" fill="#5278FF"/>
</g>
</g>
</svg>
