<svg width="22" height="22" viewBox="0 0 22 22" fill="none" xmlns="http://www.w3.org/2000/svg">
<g id="social-media">
<g id="dribbble">
<path id="Vector" d="M12.8898 6.64C14.4118 5.93812 15.8153 5.0036 17.0498 3.87C17.122 3.80637 17.1789 3.72729 17.2163 3.63864C17.2537 3.54998 17.2706 3.45404 17.2658 3.35795C17.261 3.26185 17.2346 3.16807 17.1885 3.08359C17.1425 2.99911 17.078 2.9261 16.9998 2.86999C15.2668 1.57563 13.1628 0.874294 10.9998 0.869995C10.6041 0.8881 10.21 0.931522 9.8198 0.999995C9.71205 1.01667 9.61012 1.05978 9.52311 1.12546C9.43609 1.19115 9.3667 1.27736 9.32114 1.37641C9.27558 1.47546 9.25526 1.58425 9.26201 1.69307C9.26875 1.80188 9.30235 1.90733 9.3598 2C10.3222 3.39834 11.2037 4.85072 11.9998 6.35C12.0809 6.50494 12.2195 6.622 12.3858 6.67619C12.5521 6.73038 12.7329 6.71739 12.8898 6.64Z" fill="#3E97FF"/>
<path id="Vector_2" d="M9.99998 6.88001C9.12425 5.29224 8.15245 3.75939 7.08998 2.29001C6.99937 2.16455 6.86637 2.07617 6.71561 2.04124C6.56485 2.00631 6.40653 2.02718 6.26998 2.10001C3.95892 3.32968 2.21624 5.40942 1.40998 7.90001C1.375 7.99722 1.36369 8.10137 1.377 8.20383C1.3903 8.30628 1.42784 8.40409 1.48649 8.48914C1.54515 8.57419 1.62323 8.64403 1.71427 8.69288C1.80531 8.74172 1.90668 8.76816 2.00998 8.77001C4.58471 8.8023 7.15178 8.48268 9.63998 7.82001C9.73144 7.78975 9.81503 7.73955 9.88471 7.67303C9.95438 7.6065 10.0084 7.52533 10.0429 7.43536C10.0773 7.3454 10.0913 7.24891 10.0839 7.15286C10.0765 7.05681 10.0478 6.96362 9.99998 6.88001Z" fill="#3E97FF"/>
<path id="Vector_3" opacity="0.3" d="M14.5299 10.35C16.4245 10.0612 18.3558 10.1188 20.2299 10.52C20.3329 10.5416 20.4396 10.5382 20.5411 10.5102C20.6426 10.4821 20.7358 10.4302 20.8132 10.3588C20.8905 10.2873 20.9496 10.1984 20.9856 10.0995C21.0215 10.0005 21.0333 9.89441 21.0199 9.79C20.8331 8.2226 20.278 6.72168 19.3999 5.41C19.345 5.33138 19.2734 5.26587 19.1902 5.21818C19.107 5.17049 19.0143 5.1418 18.9187 5.13415C18.8232 5.1265 18.7271 5.1401 18.6374 5.17396C18.5477 5.20782 18.4666 5.2611 18.3999 5.33C17.0437 6.59261 15.4984 7.63522 13.8199 8.42C13.6636 8.49184 13.5422 8.62269 13.4822 8.78389C13.4222 8.94508 13.4286 9.12348 13.4999 9.28L13.8199 9.97C13.8768 10.1051 13.9784 10.2165 14.1076 10.2857C14.2369 10.3548 14.3859 10.3775 14.5299 10.35Z" fill="#3E97FF"/>
<path id="Vector_4" opacity="0.3" d="M11.7798 10.32L11.5998 9.93002C11.5307 9.79044 11.4146 9.67976 11.2719 9.61754C11.1291 9.55532 10.969 9.54557 10.8198 9.59002C8.08707 10.4005 5.25007 10.8048 2.39976 10.79H1.59976C1.51186 10.7886 1.42458 10.8051 1.34322 10.8384C1.26185 10.8717 1.18809 10.9212 1.12639 10.9838C1.06469 11.0464 1.01634 11.1209 0.984264 11.2028C0.952186 11.2846 0.937047 11.3721 0.939763 11.46C0.966848 12.1337 1.05725 12.8033 1.20976 13.46C1.52892 14.6982 2.07851 15.8653 2.82976 16.9C2.89116 16.9827 2.97107 17.05 3.06311 17.0963C3.15514 17.1426 3.25674 17.1667 3.35976 17.1667C3.46279 17.1667 3.56439 17.1426 3.65642 17.0963C3.74845 17.05 3.82837 16.9827 3.88976 16.9C5.85364 14.3643 8.4459 12.3856 11.4098 11.16C11.5701 11.0975 11.699 10.9739 11.7684 10.8165C11.8377 10.659 11.8418 10.4805 11.7798 10.32Z" fill="#3E97FF"/>
<path id="Vector_5" d="M15.08 13.09C15.6804 14.7766 16.1715 16.5001 16.55 18.25C16.5734 18.3615 16.6254 18.4652 16.7008 18.5507C16.7762 18.6362 16.8724 18.7008 16.9802 18.738C17.088 18.7753 17.2035 18.784 17.3157 18.7633C17.4278 18.7426 17.5326 18.6932 17.62 18.62C19.2004 17.2459 20.315 15.4149 20.81 13.38C20.8435 13.212 20.8114 13.0375 20.7203 12.8924C20.6292 12.7473 20.4859 12.6427 20.32 12.6C18.7942 12.2211 17.217 12.0928 15.65 12.22C15.5501 12.2283 15.4534 12.2593 15.3673 12.3106C15.2811 12.3619 15.2078 12.4321 15.1529 12.516C15.0979 12.5998 15.0628 12.6951 15.0502 12.7946C15.0376 12.894 15.0477 12.995 15.08 13.09Z" fill="#3E97FF"/>
<path id="Vector_6" d="M12.2096 13C9.40329 14.1151 6.97443 16.0096 5.20964 18.46C5.15813 18.529 5.12108 18.6077 5.1007 18.6914C5.08032 18.775 5.07704 18.862 5.09104 18.9469C5.10505 19.0319 5.13605 19.1131 5.18221 19.1858C5.22836 19.2585 5.28871 19.3212 5.35964 19.37C6.66648 20.2496 8.1608 20.8117 9.72339 21.0113C11.286 21.211 12.8736 21.0427 14.3596 20.52C14.5057 20.466 14.6279 20.3621 14.7048 20.2267C14.7817 20.0913 14.8082 19.9331 14.7796 19.78C14.372 17.5993 13.7764 15.458 12.9996 13.38C12.9373 13.2309 12.8224 13.1099 12.6768 13.0399C12.5312 12.9699 12.365 12.9557 12.2096 13Z" fill="#3E97FF"/>
</g>
</g>
</svg>
