<svg width="20" height="20" viewBox="0 0 20 20" fill="none" xmlns="http://www.w3.org/2000/svg">
<path opacity="0.3" d="M20 14.93C20.0045 15.3472 19.8615 15.7526 19.5962 16.0746C19.3309 16.3966 18.9604 16.6146 18.55 16.69C15.8565 17.1277 13.2482 17.9847 10.82 19.23C10.2946 19.4456 9.70541 19.4456 9.18 19.23C6.75671 17.9984 4.16576 17.1291 1.49 16.65C1.07319 16.5812 0.694434 16.3663 0.421465 16.0439C0.148496 15.7215 -0.000893549 15.3125 4.02117e-06 14.89V2.48C-4.85767e-05 2.22076 0.0558948 1.96458 0.164007 1.72896C0.27212 1.49334 0.42985 1.28386 0.626409 1.11484C0.822968 0.945816 1.05372 0.821246 1.30287 0.749649C1.55202 0.678051 1.8137 0.661116 2.07 0.700001C4.57528 1.08222 6.98683 1.93017 9.18 3.2C9.4256 3.3545 9.70985 3.43647 10 3.43647C10.2902 3.43647 10.5744 3.3545 10.82 3.2C13.0064 1.93259 15.4001 1.06249 17.89 0.630001C18.149 0.586465 18.4144 0.599827 18.6678 0.669159C18.9211 0.738491 19.1563 0.862132 19.3571 1.0315C19.5579 1.20086 19.7194 1.41189 19.8304 1.64994C19.9414 1.88798 19.9993 2.14734 20 2.41V14.93Z" fill="#3E97FF"/>
<path d="M17.89 0.630001C15.4001 1.06249 13.0064 1.93259 10.82 3.2C10.5725 3.34934 10.2891 3.42882 10 3.43V19.43C10.2819 19.4388 10.5621 19.3842 10.82 19.27C13.2482 18.0247 15.8565 17.1677 18.55 16.73C18.9673 16.6535 19.3432 16.4297 19.6094 16.0994C19.8755 15.769 20.0141 15.354 20 14.93V2.41C19.9993 2.14734 19.9414 1.88798 19.8304 1.64994C19.7194 1.41189 19.5579 1.20086 19.3571 1.0315C19.1563 0.862132 18.9211 0.738491 18.6678 0.669159C18.4144 0.599827 18.149 0.586465 17.89 0.630001Z" fill="#3E97FF"/>
<path d="M5.74 7H3.47C3.27109 7 3.08032 6.92098 2.93967 6.78033C2.79902 6.63968 2.72 6.44891 2.72 6.25C2.72 6.05109 2.79902 5.86032 2.93967 5.71967C3.08032 5.57902 3.27109 5.5 3.47 5.5H5.74C5.93891 5.5 6.12968 5.57902 6.27033 5.71967C6.41098 5.86032 6.49 6.05109 6.49 6.25C6.49 6.44891 6.41098 6.63968 6.27033 6.78033C6.12968 6.92098 5.93891 7 5.74 7Z" fill="#3E97FF"/>
<path d="M6.5 10H3.5C3.30109 10 3.11032 9.92098 2.96967 9.78033C2.82902 9.63968 2.75 9.44891 2.75 9.25C2.75 9.05109 2.82902 8.86032 2.96967 8.71967C3.11032 8.57902 3.30109 8.5 3.5 8.5H6.5C6.69891 8.5 6.88968 8.57902 7.03033 8.71967C7.17098 8.86032 7.25 9.05109 7.25 9.25C7.25 9.44891 7.17098 9.63968 7.03033 9.78033C6.88968 9.92098 6.69891 10 6.5 10Z" fill="#3E97FF"/>
</svg>
