<svg width="10" height="10" viewBox="0 0 10 10" fill="none" xmlns="http://www.w3.org/2000/svg">
<g id="Employee" clip-path="url(#clip0_381_652)">
<g id="Group">
<path id="Vector" d="M5.06146 7.8235C5.06146 6.80636 5.61436 5.91605 6.43534 5.43699C3.80616 3.49798 -0.0180569 5.43137 6.41622e-05 8.72305V9.7059C6.41622e-05 9.86766 0.131207 9.99881 0.292969 9.99881H6.12394C5.47764 9.493 5.06146 8.70597 5.06146 7.8235Z" fill="#5278FF"/>
<path id="Vector_2" d="M6.38994 2.33314C6.38994 1.04512 5.3458 0.000976562 4.05778 0.000976562C0.964196 0.123821 0.965094 4.54295 4.0578 4.66533C5.3458 4.66533 6.38994 3.62116 6.38994 2.33314Z" fill="#5278FF"/>
<path id="Vector_3" d="M9.68063 6.69329L8.02967 8.34426C7.91532 8.45865 7.72971 8.45857 7.61544 8.34426L6.98798 7.71678C6.87359 7.60239 6.87359 7.41694 6.98798 7.30255C7.10235 7.18818 7.28782 7.18814 7.40221 7.30255L7.82254 7.72291L9.30884 6.23661C7.94847 4.94317 5.64134 5.92645 5.64726 7.82341C5.64724 9.02286 6.62308 9.9987 7.82254 9.9987C9.50214 10.0151 10.5659 8.10806 9.68063 6.69329Z" fill="#5278FF"/>
</g>
</g>
<defs>
<clipPath id="clip0_381_652">
<rect width="10" height="10" fill="white"/>
</clipPath>
</defs>
</svg>
