<svg width="18" height="16" viewBox="0 0 18 16" fill="none" xmlns="http://www.w3.org/2000/svg">
<g id="Exit">
<path id="Vector" opacity="0.3" d="M14.0079 10.8839C14.8833 10.8449 15.7081 10.4628 16.3039 9.8202C16.8996 9.17766 17.2184 8.32637 17.1913 7.45055L17.1913 3.84222C17.2274 2.96074 16.9126 2.10089 16.316 1.45108C15.7193 0.801269 14.8893 0.414508 14.0079 0.375549L4.00793 0.375548C3.1251 0.412363 2.29301 0.798191 1.69453 1.44824C1.09605 2.09828 0.780153 2.95936 0.816264 3.84221L0.816264 7.45055C0.78916 8.32775 1.10909 9.18025 1.70663 9.82303C2.30416 10.4658 3.13109 10.847 4.00793 10.8839L14.0079 10.8839Z" fill="#3E97FF"/>
<path id="Vector_2" d="M9.63293 5.25055L9.63293 13.5089L10.9996 12.1339C11.1168 12.0168 11.2756 11.9511 11.4413 11.9511C11.6069 11.9511 11.7657 12.0168 11.8829 12.1339C11.9406 12.1912 11.9864 12.2594 12.0177 12.3344C12.0489 12.4095 12.065 12.4901 12.065 12.5714C12.065 12.6527 12.0489 12.7332 12.0177 12.8083C11.9864 12.8834 11.9406 12.9516 11.8829 13.0089L9.4496 15.4505C9.33241 15.5676 9.17356 15.6333 9.00793 15.6333C8.8423 15.6333 8.68345 15.5676 8.56626 15.4505L6.13293 13.0089C6.07412 12.9515 6.02756 12.8827 5.99605 12.8068C5.96454 12.7309 5.94873 12.6494 5.9496 12.5672C5.94921 12.4851 5.96523 12.4037 5.99671 12.3279C6.02819 12.252 6.0745 12.1833 6.13293 12.1255C6.25012 12.0085 6.40897 11.9428 6.5746 11.9428C6.74022 11.9428 6.89908 12.0085 7.01626 12.1255L8.38293 13.5089L8.38293 5.25055C8.38293 5.08479 8.44878 4.92582 8.56599 4.80861C8.6832 4.6914 8.84217 4.62555 9.00793 4.62555C9.17369 4.62555 9.33266 4.6914 9.44987 4.80861C9.56708 4.92582 9.63293 5.08479 9.63293 5.25055Z" fill="#3E97FF"/>
</g>
</svg>
