<svg width="20" height="16" viewBox="0 0 20 16" fill="none" xmlns="http://www.w3.org/2000/svg">
<g id="finance">
<g id="two_credit_cart">
<path id="Vector" d="M16.27 6.78998H0V8.73998H16.27V6.78998Z" fill="#3E97FF"/>
<path id="Vector_2" opacity="0.3" d="M13.75 3.91998H2.52C1.12824 3.91998 0 5.04822 0 6.43998V12.79C0 14.1817 1.12824 15.31 2.52 15.31H13.75C15.1418 15.31 16.27 14.1817 16.27 12.79V6.43998C16.27 5.04822 15.1418 3.91998 13.75 3.91998Z" fill="#3E97FF"/>
<path id="Vector_3" d="M17.48 0.690002H6.24998C5.58163 0.690002 4.94066 0.955502 4.46807 1.42809C3.99548 1.90069 3.72998 2.54166 3.72998 3.21V3.92H13.73C14.3983 3.92 15.0393 4.1855 15.5119 4.65809C15.9845 5.13068 16.25 5.77166 16.25 6.44V12.08H17.46C17.7926 12.0826 18.1224 12.0194 18.4305 11.8939C18.7385 11.7685 19.0187 11.5833 19.2548 11.349C19.491 11.1148 19.6784 10.8361 19.8063 10.529C19.9342 10.222 20 9.89262 20 9.56V3.21C20 2.54166 19.7345 1.90069 19.2619 1.42809C18.7893 0.955502 18.1483 0.690002 17.48 0.690002Z" fill="#3E97FF"/>
<path id="Vector_4" d="M13.7002 12.31H12.4902C12.2913 12.31 12.1006 12.231 11.9599 12.0903C11.8193 11.9497 11.7402 11.7589 11.7402 11.56C11.7402 11.3611 11.8193 11.1703 11.9599 11.0297C12.1006 10.889 12.2913 10.81 12.4902 10.81H13.7002C13.8991 10.81 14.0899 10.889 14.2306 11.0297C14.3712 11.1703 14.4502 11.3611 14.4502 11.56C14.4502 11.7589 14.3712 11.9497 14.2306 12.0903C14.0899 12.231 13.8991 12.31 13.7002 12.31Z" fill="#3E97FF"/>
<path id="Vector_5" d="M5.44982 12.31H2.56982C2.37091 12.31 2.18015 12.231 2.03949 12.0903C1.89884 11.9497 1.81982 11.7589 1.81982 11.56C1.81982 11.3611 1.89884 11.1703 2.03949 11.0297C2.18015 10.889 2.37091 10.81 2.56982 10.81H5.44982C5.64874 10.81 5.8395 10.889 5.98015 11.0297C6.12081 11.1703 6.19982 11.3611 6.19982 11.56C6.19982 11.7589 6.12081 11.9497 5.98015 12.0903C5.8395 12.231 5.64874 12.31 5.44982 12.31Z" fill="#3E97FF"/>
</g>
</g>
</svg>
