<svg width="10" height="10" viewBox="0 0 10 10" fill="none" xmlns="http://www.w3.org/2000/svg">
<g id="Globalization" clip-path="url(#clip0_380_618)">
<g id="Group">
<path id="Vector" d="M7.1036 2.76196C6.5334 2.88102 5.92251 2.9515 5.293 2.96826V4.70687H7.35365C7.33466 4.02207 7.24922 3.36369 7.1036 2.76196Z" fill="#5278FF"/>
<path id="Vector_2" d="M2.0601 4.70679C2.07942 3.97588 2.17088 3.27051 2.32761 2.62307C1.81433 2.47899 1.34471 2.29272 0.937432 2.06885C0.379614 2.83858 0.0549868 3.74717 0 4.70679H2.0601Z" fill="#5278FF"/>
<path id="Vector_3" d="M2.0601 5.29297H0C0.0549868 6.25259 0.379614 7.16117 0.937413 7.93091C1.34469 7.70704 1.81433 7.52076 2.32761 7.37669C2.17088 6.72925 2.0794 6.02387 2.0601 5.29297Z" fill="#5278FF"/>
<path id="Vector_4" d="M5.84261 0.338502C5.66345 0.186942 5.47948 0.08484 5.29301 0.0324707V2.38219C5.86837 2.36618 6.42498 2.30308 6.94387 2.1976C6.84864 1.90655 6.73797 1.63318 6.61239 1.38204C6.38677 0.930856 6.12778 0.579741 5.84261 0.338502Z" fill="#5278FF"/>
<path id="Vector_5" d="M2.4851 7.93994C2.05616 8.0604 1.66197 8.2123 1.3157 8.39273C1.36219 8.4431 1.40954 8.4929 1.4583 8.54167C2.02159 9.10496 2.69541 9.51749 3.43087 9.75914C3.22485 9.51563 3.03432 9.22155 2.86348 8.87987C2.71891 8.59074 2.59247 8.27557 2.4851 7.93994Z" fill="#5278FF"/>
<path id="Vector_6" d="M3.38762 1.38204C3.26206 1.63318 3.15136 1.90655 3.05614 2.1976C3.57503 2.30308 4.13163 2.36618 4.70699 2.38219V0.0324707C4.52051 0.0848596 4.33656 0.186942 4.1574 0.338502C3.87221 0.579741 3.61323 0.930856 3.38762 1.38204Z" fill="#5278FF"/>
<path id="Vector_7" d="M7.93991 5.29297C7.92059 6.02387 7.82913 6.72925 7.67239 7.37669C8.18568 7.52076 8.65532 7.70704 9.06259 7.93091C9.62039 7.16117 9.945 6.25261 10 5.29297H7.93991Z" fill="#5278FF"/>
<path id="Vector_8" d="M7.51492 2.0599C7.94385 1.93943 8.33804 1.78754 8.68429 1.60711C8.6378 1.55673 8.59047 1.50694 8.54169 1.45819C7.97843 0.894919 7.30458 0.482391 6.56912 0.240723C6.77514 0.484227 6.96567 0.778304 7.13651 1.11996C7.28108 1.4091 7.40754 1.72429 7.51492 2.0599Z" fill="#5278FF"/>
<path id="Vector_9" d="M6.61237 8.61785C6.73795 8.36671 6.84863 8.09332 6.94385 7.80227C6.42497 7.69679 5.86836 7.63369 5.293 7.61768V9.9674C5.47949 9.91503 5.66343 9.81295 5.84259 9.66137C6.12778 9.42013 6.38678 9.06905 6.61237 8.61785Z" fill="#5278FF"/>
<path id="Vector_10" d="M7.67239 2.6233C7.82913 3.27073 7.92059 3.97611 7.93991 4.70701H10C9.94502 3.74739 9.62039 2.83881 9.06259 2.06909C8.65532 2.29295 8.18568 2.47922 7.67239 2.6233Z" fill="#5278FF"/>
<path id="Vector_11" d="M5.293 5.29297V7.03159C5.92251 7.04835 6.53338 7.11882 7.1036 7.23788C7.24922 6.63613 7.33466 5.97777 7.35365 5.29297H5.293Z" fill="#5278FF"/>
<path id="Vector_12" d="M4.70699 4.70687V2.96826C4.07749 2.9515 3.46662 2.88102 2.8964 2.76196C2.75077 3.36371 2.66533 4.02207 2.64635 4.70687H4.70699Z" fill="#5278FF"/>
<path id="Vector_13" d="M2.4851 2.0599C2.59245 1.72427 2.71891 1.4091 2.86348 1.11996C3.03432 0.778304 3.22485 0.484208 3.43087 0.240723C2.69543 0.482391 2.02159 0.894919 1.4583 1.45821C1.40954 1.50696 1.36219 1.55675 1.3157 1.60713C1.66197 1.78754 2.05616 1.93943 2.4851 2.0599Z" fill="#5278FF"/>
<path id="Vector_14" d="M7.51491 7.93994C7.40755 8.27557 7.28109 8.59074 7.13653 8.87987C6.96569 9.22153 6.77516 9.51563 6.56914 9.75914C7.30457 9.51749 7.97842 9.10496 8.54171 8.54167C8.59046 8.49292 8.63781 8.44312 8.6843 8.39273C8.33803 8.2123 7.94385 8.0604 7.51491 7.93994Z" fill="#5278FF"/>
<path id="Vector_15" d="M4.70699 5.29297H2.64635C2.66533 5.97779 2.75077 6.63615 2.8964 7.23788C3.4666 7.11882 4.07749 7.04835 4.70699 7.03159V5.29297Z" fill="#5278FF"/>
<path id="Vector_16" d="M4.1574 9.66137C4.33656 9.81293 4.52052 9.91501 4.70699 9.9674V7.61768C4.13163 7.63369 3.57503 7.69679 3.05614 7.80227C3.15136 8.09332 3.26204 8.36671 3.38762 8.61785C3.61323 9.06903 3.87221 9.42011 4.1574 9.66137Z" fill="#5278FF"/>
</g>
</g>
<defs>
<clipPath id="clip0_380_618">
<rect width="10" height="10" fill="white"/>
</clipPath>
</defs>
</svg>
