<svg width="20" height="20" viewBox="0 0 20 20" fill="none" xmlns="http://www.w3.org/2000/svg">
<g id="Group">
<path id="Vector" d="M19.7875 10.225C19.7875 9.56668 19.7292 8.94168 19.6292 8.33334H10.2125V12.0917H15.6042C15.3625 13.325 14.6542 14.3667 13.6042 15.075V17.575H16.8209C18.7042 15.8333 19.7875 13.2667 19.7875 10.225Z" fill="#4285F4"/>
<path id="Vector_2" d="M10.2125 20C12.9125 20 15.1708 19.1 16.8208 17.575L13.6041 15.075C12.7041 15.675 11.5625 16.0417 10.2125 16.0417C7.60414 16.0417 5.39581 14.2834 4.60414 11.9084H1.28748V14.4834C2.92914 17.75 6.30414 20 10.2125 20Z" fill="#34A853"/>
<path id="Vector_3" d="M4.60419 11.9084C4.39586 11.3084 4.28752 10.6668 4.28752 10.0001C4.28752 9.33342 4.40419 8.69175 4.60419 8.09175V5.51675H1.28752C0.60419 6.86675 0.212524 8.38342 0.212524 10.0001C0.212524 11.6168 0.60419 13.1334 1.28752 14.4834L4.60419 11.9084Z" fill="#FBBC05"/>
<path id="Vector_4" d="M10.2125 3.95833C11.6875 3.95833 13.0041 4.46667 14.0458 5.45834L16.8958 2.60833C15.1708 0.991667 12.9125 0 10.2125 0C6.30414 0 2.92914 2.25 1.28748 5.51667L4.60414 8.09167C5.39581 5.71667 7.60414 3.95833 10.2125 3.95833Z" fill="#EA4335"/>
</g>
</svg>
