<svg width="10" height="10" viewBox="0 0 10 10" fill="none" xmlns="http://www.w3.org/2000/svg">
<g clip-path="url(#clip0_380_600)">
<path d="M9.7303 4.34952C9.73007 4.34929 9.72984 4.34906 9.72961 4.34883L5.6504 0.269775C5.47653 0.0958252 5.24536 0 4.99946 0C4.75357 0 4.5224 0.0957489 4.34844 0.269699L0.271373 4.34669C0.269999 4.34807 0.268626 4.34952 0.267253 4.35089C-0.089803 4.71001 -0.0891926 5.29266 0.269007 5.65086C0.432658 5.81459 0.648799 5.90942 0.879893 5.91934C0.889277 5.92026 0.898738 5.92072 0.908275 5.92072H1.07086V8.92265C1.07086 9.51668 1.55418 10 2.14836 10H3.74427C3.90602 10 4.03724 9.86885 4.03724 9.70703V7.35352C4.03724 7.08244 4.25773 6.86195 4.5288 6.86195H5.47012C5.74119 6.86195 5.96168 7.08244 5.96168 7.35352V9.70703C5.96168 9.86885 6.09283 10 6.25465 10H7.85057C8.44474 10 8.92807 9.51668 8.92807 8.92265V5.92072H9.07882C9.32464 5.92072 9.55581 5.82497 9.72984 5.65102C10.0884 5.29221 10.0886 4.70856 9.7303 4.34952Z" fill="#5278FF"/>
</g>
<defs>
<clipPath id="clip0_380_600">
<rect width="10" height="10" fill="white"/>
</clipPath>
</defs>
</svg>
