<svg width="21" height="21" viewBox="0 0 21 21" fill="none" xmlns="http://www.w3.org/2000/svg">
<g id="general">
<g id="home-2">
<path id="home" d="M2.28 6.39L7.38 2C8.11189 1.35051 9.05647 0.991821 10.035 0.991821C11.0135 0.991821 11.9581 1.35051 12.69 2L17.76 6.46C18.4723 7.0834 19.0426 7.8523 19.4324 8.71483C19.8223 9.57736 20.0226 10.5135 20.02 11.46V17.07C20.0016 18.1222 19.5693 19.1247 18.8168 19.8603C18.0644 20.596 17.0523 21.0054 16 21H4C2.93913 21 1.92172 20.5786 1.17157 19.8284C0.421427 19.0783 0 18.0609 0 17V11.33C0.00515792 10.3915 0.21132 9.46502 0.604608 8.6129C0.997895 7.76078 1.56918 7.0028 2.28 6.39Z" fill="#3E97FF"/>
<path id="Vector" opacity="0.3" d="M10 18.85C9.80109 18.85 9.61032 18.771 9.46967 18.6303C9.32902 18.4897 9.25 18.2989 9.25 18.1V15.24C9.25 15.0411 9.32902 14.8503 9.46967 14.7097C9.61032 14.569 9.80109 14.49 10 14.49C10.1989 14.49 10.3897 14.569 10.5303 14.7097C10.671 14.8503 10.75 15.0411 10.75 15.24V18.1C10.75 18.2989 10.671 18.4897 10.5303 18.6303C10.3897 18.771 10.1989 18.85 10 18.85Z" fill="black"/>
</g>
</g>
</svg>
