<svg width="27" height="16" viewBox="0 0 27 16" fill="none" xmlns="http://www.w3.org/2000/svg">
<g id="&#240;&#159;&#166;&#134; icon &#34;MasterCard&#34;">
<path id="Vector" d="M16.0699 8.00007C16.0699 12.4186 12.4723 15.9999 8.03472 15.9999C3.59709 15.9999 0 12.4184 0 8.00007C0 3.58198 3.59714 0.000244141 8.03472 0.000244141C12.4723 0.000244141 16.0699 3.58216 16.0699 8.00007Z" fill="#D9222A"/>
<path id="Vector_2" d="M18.8219 0C16.7459 0 14.8541 0.784205 13.4281 2.07091C13.1376 2.33336 12.8665 2.61628 12.6168 2.91751H14.2402C14.4625 3.18656 14.6671 3.46956 14.8528 3.76482H12.0044C11.8331 4.03766 11.6785 4.32053 11.5414 4.61195H15.3154C15.445 4.8876 15.5585 5.17038 15.6557 5.45891H11.2013C11.1077 5.73674 11.0298 6.01957 10.9678 6.30604H15.8889C16.0092 6.86269 16.0699 7.43052 16.0698 7.99996C16.0698 8.8884 15.9241 9.74307 15.6556 10.5412H11.2012C11.2981 10.8299 11.4116 11.1128 11.5412 11.3884H15.3153C15.1782 11.6799 15.0235 11.9628 14.8522 12.2357H12.0042C12.1899 12.5308 12.3945 12.8136 12.6168 13.0823H14.2398C13.9905 13.3841 13.7192 13.6673 13.4283 13.9297C14.8543 15.2162 16.7459 16 18.8221 16C23.2597 16 26.8572 12.4185 26.8572 8.00018C26.8572 3.58227 23.2597 0.000356342 18.8221 0.000356342" fill="#EE9F2D"/>
<path id="Vector_3" d="M25.7855 12.4594C25.7855 12.3168 25.9016 12.2009 26.045 12.2009C26.1884 12.2009 26.3044 12.3168 26.3044 12.4594C26.3044 12.602 26.1884 12.7179 26.045 12.7179C25.9016 12.7179 25.7855 12.602 25.7855 12.4594ZM26.045 12.6559C26.1539 12.6558 26.2422 12.5679 26.2423 12.4594C26.2423 12.351 26.1541 12.2632 26.0452 12.2631H26.045C25.9363 12.263 25.848 12.3506 25.8478 12.4588V12.4594C25.8478 12.5679 25.9359 12.6558 26.0448 12.6559C26.0448 12.6559 26.0449 12.6559 26.045 12.6559ZM26.0099 12.573H25.9568V12.3458H26.053C26.0731 12.3458 26.0936 12.3458 26.1114 12.3572C26.1299 12.3696 26.1403 12.3915 26.1403 12.4142C26.1403 12.4396 26.1252 12.4634 26.1008 12.4726L26.1427 12.5729H26.0839L26.049 12.483H26.01L26.0099 12.573ZM26.0099 12.4442H26.0394C26.0504 12.4442 26.062 12.4451 26.0719 12.4397C26.0806 12.4341 26.0851 12.4237 26.0851 12.4137C26.0849 12.4044 26.0801 12.3958 26.0722 12.3906C26.063 12.3848 26.0482 12.3861 26.0383 12.3861H26.0099V12.4442ZM6.15813 8.87597C6.06655 8.86537 6.02631 8.86256 5.96342 8.86256C5.46898 8.86256 5.21867 9.03133 5.21867 9.36474C5.21867 9.57024 5.34083 9.701 5.53142 9.701C5.88679 9.701 6.14282 9.36412 6.15813 8.87597ZM6.79245 10.3465H6.06973L6.08633 10.0044C5.86584 10.2747 5.57175 10.4032 5.17203 10.4032C4.69921 10.4032 4.37509 10.0356 4.37509 9.5017C4.37509 8.69842 4.93891 8.2297 5.9067 8.2297C6.00554 8.2297 6.13239 8.23857 6.26216 8.25511C6.28919 8.14632 6.29631 8.09966 6.29631 8.04114C6.29631 7.8224 6.1443 7.74089 5.73679 7.74089C5.31008 7.73608 4.95812 7.8421 4.81358 7.88943C4.82271 7.83466 4.93444 7.14699 4.93444 7.14699C5.36916 7.02015 5.65582 6.97242 5.9785 6.97242C6.72746 6.97242 7.12422 7.30725 7.12346 7.94006C7.12494 8.10964 7.09674 8.31888 7.05278 8.59391C6.97709 9.07229 6.81465 10.0968 6.79245 10.3465ZM4.01015 10.3465H3.13788L3.63751 7.22694L2.52183 10.3465H1.92744L1.85394 7.24477L1.32875 10.3465H0.512207L1.19424 6.2884H2.44851L2.5246 8.5599L3.28967 6.2884H4.68476L4.01015 10.3465ZM19.8992 8.87597C19.808 8.86537 19.7676 8.86256 19.7048 8.86256C19.2106 8.86256 18.9603 9.03133 18.9603 9.36474C18.9603 9.57024 19.0823 9.701 19.2729 9.701C19.6283 9.701 19.8845 9.36412 19.8992 8.87597ZM20.5341 10.3465H19.8114L19.8278 10.0044C19.6073 10.2747 19.313 10.4032 18.9136 10.4032C18.4407 10.4032 18.1169 10.0356 18.1169 9.5017C18.1169 8.69842 18.6803 8.2297 19.6483 8.2297C19.7471 8.2297 19.8738 8.23857 20.0035 8.25511C20.0305 8.14632 20.0376 8.09966 20.0376 8.04114C20.0376 7.8224 19.8858 7.74089 19.4783 7.74089C19.0515 7.73608 18.7 7.8421 18.5549 7.88943C18.564 7.83466 18.6761 7.14699 18.6761 7.14699C19.1109 7.02015 19.3973 6.97242 19.7197 6.97242C20.469 6.97242 20.8657 7.30725 20.865 7.94006C20.8664 8.10964 20.8383 8.31888 20.7943 8.59391C20.7189 9.07229 20.5561 10.0968 20.5341 10.3465ZM10.6691 10.2964C10.4304 10.3712 10.2442 10.4032 10.0424 10.4032C9.5965 10.4032 9.35313 10.1481 9.35313 9.67827C9.34677 9.53249 9.41727 9.14881 9.47269 8.79865C9.52304 8.49038 9.85088 6.54671 9.85088 6.54671H10.718L10.6167 7.04622H11.1403L11.0221 7.83934H10.4965C10.3958 8.46698 10.2523 9.24878 10.2507 9.3524C10.2507 9.52247 10.3419 9.59676 10.5493 9.59676C10.6487 9.59676 10.7257 9.58664 10.7845 9.56556L10.6691 10.2964ZM13.3276 10.2696C13.0297 10.3603 12.7423 10.4041 12.4377 10.4033C11.4671 10.4024 10.9612 9.89768 10.9612 8.93119C10.9612 7.80306 11.6049 6.9726 12.4786 6.9726C13.1935 6.9726 13.65 7.43756 13.65 8.16682C13.65 8.40877 13.6187 8.64498 13.5431 8.97848H11.8165C11.7581 9.45717 12.0658 9.65666 12.5702 9.65666C12.8806 9.65666 13.1605 9.59297 13.4717 9.44884L13.3276 10.2696ZM12.8402 8.31313C12.845 8.24437 12.9322 7.72409 12.4368 7.72409C12.1605 7.72409 11.963 7.93373 11.8826 8.31313H12.8402ZM7.31571 8.08954C7.31571 8.507 7.51902 8.79486 7.98007 9.01101C8.33333 9.17631 8.38793 9.22538 8.38793 9.37513C8.38793 9.58089 8.23221 9.67377 7.88701 9.67377C7.62681 9.67377 7.38474 9.6333 7.10556 9.54355C7.10556 9.54355 6.99083 10.2709 6.9856 10.3057C7.18389 10.3488 7.3607 10.3887 7.89332 10.4033C8.81375 10.4033 9.23881 10.0544 9.23881 9.3003C9.23881 8.84683 9.06084 8.58071 8.62392 8.3807C8.25817 8.21357 8.21623 8.17627 8.21623 8.02215C8.21623 7.84371 8.36112 7.7527 8.64312 7.7527C8.81433 7.7527 9.04821 7.77088 9.26978 7.80226L9.394 7.03682C9.16813 7.00116 8.8257 6.97255 8.62633 6.97255C7.65049 6.97259 7.31271 7.48008 7.31571 8.08954ZM17.5702 7.05932C17.8124 7.05932 18.0383 7.12265 18.3496 7.27864L18.4923 6.39786C18.3645 6.3479 17.9147 6.05469 17.5336 6.05469C16.9499 6.05469 16.4564 6.34308 16.1093 6.81902C15.6031 6.65207 15.395 6.98949 15.1399 7.32561L14.9132 7.37816C14.9304 7.2675 14.9459 7.15755 14.9406 7.04631H14.1396C14.0301 8.06766 13.8362 9.10211 13.6843 10.1248L13.6447 10.3466H14.5174C14.6631 9.40427 14.7429 8.80097 14.7914 8.39264L15.12 8.21063C15.1691 8.02888 15.3227 7.96738 15.631 7.97482C15.5896 8.19802 15.5689 8.42455 15.5691 8.65153C15.5691 9.73117 16.1542 10.4034 17.0933 10.4034C17.3352 10.4034 17.5427 10.3717 17.8641 10.2849L18.0176 9.35975C17.7286 9.50152 17.4913 9.56819 17.2764 9.56819C16.7693 9.56819 16.4625 9.19548 16.4625 8.57947C16.4625 7.68585 16.9189 7.05932 17.5702 7.05932Z" fill="black"/>
<path id="Vector_4" d="M4.26206 10.1053H3.38961L3.88964 6.98617L2.77391 10.1053H2.17935L2.10585 7.004L1.58066 10.1053H0.76416L1.44619 6.04785H2.70046L2.73573 8.55975L3.58191 6.04785H4.93671L4.26206 10.1053Z" fill="white"/>
<path id="Vector_5" d="M24.9556 6.28882L24.7622 7.46134C24.5236 7.14879 24.2674 6.92261 23.9291 6.92261C23.4889 6.92261 23.0883 7.25486 22.826 7.74376C22.4609 7.66835 22.0831 7.5404 22.0831 7.5404L22.0829 7.54339C22.1124 7.27001 22.1242 7.10328 22.1215 7.04664H21.3203C21.2112 8.06799 21.0172 9.10244 20.8657 10.1251L20.8257 10.3469H21.6982C21.816 9.58497 21.9062 8.95234 21.9727 8.45051C22.2707 8.18239 22.42 7.94841 22.7212 7.96401C22.5878 8.28512 22.5097 8.65494 22.5097 9.03438C22.5097 9.85946 22.9289 10.4037 23.563 10.4037C23.8827 10.4037 24.128 10.294 24.3673 10.0396L24.3264 10.3464H25.1516L25.8159 6.28886L24.9556 6.28882ZM23.8647 9.58417C23.5677 9.58417 23.4178 9.36543 23.4178 8.93366C23.4178 8.28499 23.6985 7.82505 24.0943 7.82505C24.394 7.82505 24.5562 8.05252 24.5562 8.47168C24.5563 9.12588 24.2711 9.58417 23.8647 9.58417Z" fill="black"/>
<path id="Vector_6" d="M6.40919 8.63563C6.31778 8.62511 6.27732 8.62231 6.21465 8.62231C5.72022 8.62231 5.47009 8.79108 5.47009 9.1244C5.47009 9.32959 5.59224 9.46075 5.78248 9.46075C6.1382 9.46071 6.39428 9.12387 6.40919 8.63563ZM7.04382 10.1056H6.3211L6.33752 9.76412C6.11725 10.0339 5.82276 10.163 5.42345 10.163C4.95045 10.163 4.62646 9.79532 4.62646 9.26145C4.62646 8.45781 5.1901 7.98941 6.15807 7.98941C6.25691 7.98941 6.38376 7.99832 6.51339 8.01485C6.54043 7.90607 6.54755 7.85945 6.54755 7.80058C6.54755 7.58179 6.39571 7.50068 5.9882 7.50068C5.56131 7.49587 5.20953 7.6019 5.06482 7.64869C5.07395 7.5941 5.18567 6.90722 5.18567 6.90722C5.62022 6.77985 5.90723 6.73212 6.22951 6.73212C6.97869 6.73212 7.37559 7.06713 7.37488 7.69941C7.37617 7.8697 7.34784 8.07881 7.30397 8.35343C7.22846 8.83137 7.06589 9.85642 7.04382 10.1056ZM18.7436 6.15734L18.6008 7.0383C18.2897 6.88249 18.0636 6.81903 17.8216 6.81903C17.1703 6.81903 16.7138 7.44555 16.7138 8.33904C16.7138 8.955 17.0207 9.32758 17.5277 9.32758C17.7426 9.32758 17.9796 9.26109 18.2687 9.11923L18.1156 10.044C17.794 10.1312 17.5867 10.163 17.3446 10.163C16.4056 10.163 15.8204 9.49074 15.8204 8.4111C15.8204 6.96044 16.6287 5.94653 17.7849 5.94653C18.1657 5.94658 18.6157 6.10738 18.7436 6.15734ZM20.1511 8.63563C20.0597 8.62511 20.0194 8.62231 19.9565 8.62231C19.4623 8.62231 19.212 8.79108 19.212 9.1244C19.212 9.32959 19.3341 9.46075 19.5245 9.46075C19.8799 9.46071 20.1361 9.12387 20.1511 8.63563ZM20.7857 10.1056H20.0628L20.0794 9.76412C19.8589 10.0339 19.5646 10.163 19.1653 10.163C18.6925 10.163 18.3684 9.79532 18.3684 9.26145C18.3684 8.45781 18.9322 7.98941 19.8998 7.98941C19.9988 7.98941 20.1255 7.99832 20.2552 8.01485C20.2821 7.90607 20.2894 7.85945 20.2894 7.80058C20.2894 7.58179 20.1375 7.50068 19.7301 7.50068C19.3034 7.49587 18.9514 7.6019 18.8066 7.64869C18.8158 7.5941 18.9277 6.90722 18.9277 6.90722C19.3623 6.77985 19.6491 6.73212 19.9713 6.73212C20.7207 6.73212 21.1174 7.06713 21.1165 7.69941C21.118 7.8697 21.0898 8.07881 21.0458 8.35343C20.9705 8.83137 20.8075 9.85642 20.7857 10.1056ZM10.9207 10.0557C10.6817 10.1305 10.4956 10.163 10.294 10.163C9.84809 10.163 9.60472 9.9078 9.60472 9.43798C9.59855 9.29184 9.66909 8.90852 9.72446 8.5584C9.77459 8.24972 10.1025 6.30624 10.1025 6.30624H10.9694L10.8683 6.80592H11.3132L11.1948 7.59869H10.7483C10.6476 8.22673 10.5038 9.0079 10.5023 9.11174C10.5023 9.28244 10.5936 9.35606 10.8009 9.35606C10.9003 9.35606 10.9772 9.34644 11.0361 9.32527L10.9207 10.0557ZM13.5791 10.0293C13.2814 10.1199 12.9937 10.1635 12.6893 10.163C11.7186 10.1621 11.2127 9.65734 11.2127 8.69081C11.2127 7.56232 11.8564 6.73208 12.7301 6.73208C13.445 6.73208 13.9016 7.19687 13.9016 7.92648C13.9016 8.16866 13.8702 8.40482 13.7949 8.73814H12.0682C12.0098 9.21683 12.3175 9.41654 12.8219 9.41654C13.1321 9.41654 13.4122 9.35259 13.7233 9.2081L13.5791 10.0293ZM13.0916 8.07226C13.0968 8.00371 13.1838 7.48321 12.6882 7.48321C12.4121 7.48321 12.2146 7.69344 12.1342 8.07226H13.0916ZM7.56713 7.8492C7.56713 8.26666 7.77043 8.55416 8.23148 8.77063C8.58474 8.93593 8.63935 8.98508 8.63935 9.13483C8.63935 9.34055 8.48344 9.43339 8.13855 9.43339C7.87822 9.43339 7.6361 9.39292 7.3567 9.30321C7.3567 9.30321 7.24238 10.0306 7.23714 10.0653C7.43503 10.1084 7.61202 10.1478 8.14469 10.163C9.06526 10.163 9.49018 9.81408 9.49018 9.06014C9.49018 8.60644 9.31243 8.34037 8.87529 8.1404C8.50972 7.97287 8.46737 7.9361 8.46737 7.78181C8.46737 7.60354 8.61267 7.51178 8.89449 7.51178C9.06552 7.51178 9.2994 7.53054 9.52133 7.56192L9.64537 6.7963C9.41968 6.76064 9.07725 6.73208 8.87788 6.73208C7.9019 6.73208 7.56431 7.23921 7.56713 7.8492ZM25.4024 10.1056H24.5771L24.6181 9.79844C24.3788 10.0532 24.1336 10.163 23.8139 10.163C23.1798 10.163 22.7607 9.6187 22.7607 8.79362C22.7607 7.69593 23.4107 6.77063 24.18 6.77063C24.5184 6.77063 24.7744 6.90821 25.0128 7.22058L25.2064 6.0481H26.0667L25.4024 10.1056ZM24.1157 9.34314C24.5219 9.34314 24.8073 8.88485 24.8073 8.23105C24.8073 7.8119 24.6448 7.58442 24.3451 7.58442C23.9495 7.58442 23.6685 8.04414 23.6685 8.69304C23.6685 9.12471 23.8188 9.34314 24.1157 9.34314ZM21.5714 6.80597C21.4621 7.82732 21.2682 8.86186 21.1165 9.88392L21.0766 10.1057H21.949C22.2611 8.0879 22.3366 7.69384 22.8258 7.74322C22.9038 7.33021 23.0488 6.96851 23.157 6.78596C22.7916 6.71019 22.5876 6.91578 22.3205 7.30628C22.3416 7.13746 22.3801 6.9735 22.3725 6.80601L21.5714 6.80597ZM14.3907 6.80597C14.2812 7.82732 14.0872 8.86186 13.9356 9.88392L13.8958 10.1057H14.7687C15.0804 8.0879 15.1557 7.69384 15.6447 7.74322C15.723 7.33021 15.8681 6.96851 15.9759 6.78596C15.6109 6.71019 15.4066 6.91578 15.1398 7.30628C15.1609 7.13746 15.199 6.9735 15.1918 6.80601L14.3907 6.80597ZM25.7857 9.84728C25.7855 9.70471 25.9014 9.58902 26.0446 9.58884H26.0451C26.1882 9.58866 26.3044 9.70409 26.3045 9.84657V9.84728C26.3045 9.98994 26.1884 10.1055 26.0451 10.1056C25.9018 10.1055 25.7857 9.98994 25.7857 9.84728ZM26.0451 10.0436C26.1539 10.0437 26.2421 9.95585 26.2422 9.84755V9.84737C26.2423 9.73894 26.1541 9.65101 26.0453 9.65092H26.0451C25.9361 9.65096 25.8478 9.73889 25.8478 9.84737C25.8479 9.95576 25.9362 10.0436 26.0451 10.0436ZM26.01 9.96022H25.9568V9.73372H26.0532C26.0732 9.73372 26.0939 9.73413 26.1112 9.74505C26.1299 9.75766 26.1405 9.77923 26.1405 9.80182C26.1405 9.82745 26.1254 9.85138 26.1007 9.86052L26.1429 9.96017H26.0838L26.0489 9.87064H26.01L26.01 9.96022ZM26.01 9.83191H26.0392C26.0502 9.83191 26.0622 9.83275 26.0719 9.82745C26.0806 9.82188 26.0851 9.81136 26.0851 9.80124C26.0847 9.79189 26.08 9.78324 26.0723 9.77794C26.0631 9.77272 26.048 9.77419 26.0381 9.77419H26.01L26.01 9.83191Z" fill="white"/>
</g>
</svg>
