<svg width="18" height="16" viewBox="0 0 18 16" fill="none" xmlns="http://www.w3.org/2000/svg">
<g id="security">
<g id="eye">
<path id="Vector" d="M9 10.375C10.3117 10.375 11.375 9.31168 11.375 8C11.375 6.68832 10.3117 5.625 9 5.625C7.68832 5.625 6.625 6.68832 6.625 8C6.625 9.31168 7.68832 10.375 9 10.375Z" fill="black"/>
<path id="Vector_2" opacity="0.3" d="M9 10.375C10.3117 10.375 11.375 9.31168 11.375 8C11.375 6.68832 10.3117 5.625 9 5.625C7.68832 5.625 6.625 6.68832 6.625 8C6.625 9.31168 7.68832 10.375 9 10.375Z" fill="black"/>
<path id="Vector_3" opacity="0.3" d="M8.99996 0.866669C5.05829 0.866669 0.666626 4.71667 0.666626 8C0.666626 11.1333 5.05829 15.1333 8.99996 15.1333C13.1666 15.1333 17.3333 11.3083 17.3333 8C17.3333 4.81667 12.9416 0.866669 8.99996 0.866669ZM8.99996 11.625C8.283 11.625 7.58215 11.4124 6.98602 11.0141C6.38989 10.6158 5.92526 10.0496 5.6509 9.38723C5.37653 8.72485 5.30474 7.99598 5.44461 7.2928C5.58448 6.58962 5.92973 5.94371 6.4367 5.43674C6.94366 4.92977 7.58958 4.58453 8.29276 4.44466C8.99594 4.30478 9.7248 4.37657 10.3872 4.65094C11.0496 4.92531 11.6157 5.38993 12.014 5.98606C12.4124 6.58219 12.625 7.28304 12.625 8C12.625 8.96141 12.243 9.88344 11.5632 10.5633C10.8834 11.2431 9.96137 11.625 8.99996 11.625Z" fill="black"/>
</g>
</g>
</svg>
