<svg width="28" height="28" viewBox="0 0 28 28" fill="none" xmlns="http://www.w3.org/2000/svg">
<path opacity="0.3" d="M20.4794 0.666626H7.50602C3.72839 0.666626 0.666016 3.729 0.666016 7.50663V20.48C0.666016 24.2576 3.72839 27.32 7.50602 27.32H20.4794C24.257 27.32 27.3193 24.2576 27.3193 20.48V7.50663C27.3193 3.729 24.257 0.666626 20.4794 0.666626Z" fill="#3E97FF"/>
<path d="M9.22656 11.5333C9.49071 11.5298 9.74306 11.4233 9.92985 11.2365C10.1166 11.0497 10.2231 10.7974 10.2266 10.5333V5.33325C10.2266 5.06804 10.1212 4.81368 9.93367 4.62615C9.74613 4.43861 9.49178 4.33325 9.22656 4.33325C8.96135 4.33325 8.70699 4.43861 8.51946 4.62615C8.33192 4.81368 8.22656 5.06804 8.22656 5.33325V10.5333C8.23002 10.7974 8.33648 11.0497 8.52327 11.2365C8.71007 11.4233 8.96242 11.5298 9.22656 11.5333Z" fill="#3E97FF"/>
<path d="M9.22689 12.8667C8.34797 12.8604 7.49667 13.1735 6.83129 13.7478C6.16591 14.322 5.73172 15.1184 5.60948 15.9888C5.48723 16.8592 5.68524 17.7444 6.16668 18.4798C6.64813 19.2151 7.38024 19.7506 8.22689 19.9867V22.6533C8.2251 22.7852 8.24974 22.916 8.29936 23.0381C8.34898 23.1603 8.42257 23.2712 8.51579 23.3644C8.60901 23.4577 8.71996 23.5313 8.8421 23.5809C8.96423 23.6305 9.09507 23.6551 9.22689 23.6533C9.49103 23.6499 9.74339 23.5434 9.93018 23.3566C10.117 23.1698 10.2234 22.9175 10.2269 22.6533V19.9867C11.0735 19.7506 11.8057 19.2151 12.2871 18.4798C12.7685 17.7444 12.9666 16.8592 12.8443 15.9888C12.7221 15.1184 12.2879 14.322 11.6225 13.7478C10.9571 13.1735 10.1058 12.8604 9.22689 12.8667Z" fill="#3E97FF"/>
<path d="M18.7734 16.4667C18.5093 16.4701 18.2569 16.5766 18.0701 16.7634C17.8834 16.9502 17.7769 17.2025 17.7734 17.4667V22.6667C17.7734 22.9319 17.8788 23.1862 18.0663 23.3738C18.2539 23.5613 18.5082 23.6667 18.7734 23.6667C19.0387 23.6667 19.293 23.5613 19.4805 23.3738C19.6681 23.1862 19.7734 22.9319 19.7734 22.6667V17.4667C19.77 17.2025 19.6635 16.9502 19.4767 16.7634C19.2899 16.5766 19.0376 16.4701 18.7734 16.4667Z" fill="#3E97FF"/>
<path d="M19.7728 8.01332V5.34665C19.7694 5.08251 19.6629 4.83015 19.4761 4.64336C19.2893 4.45657 19.037 4.3501 18.7728 4.34665C18.641 4.34486 18.5102 4.3695 18.388 4.41912C18.2659 4.46874 18.1549 4.54233 18.0617 4.63555C17.9685 4.72876 17.8949 4.83972 17.8453 4.96185C17.7957 5.08399 17.771 5.21483 17.7728 5.34665V8.01332C16.9287 8.2545 16.2001 8.79265 15.7215 9.5286C15.2428 10.2645 15.0462 11.1487 15.168 12.0181C15.2898 12.8876 15.7217 13.6837 16.3841 14.2598C17.0466 14.836 17.8949 15.1533 18.7728 15.1533C19.6507 15.1533 20.4991 14.836 21.1615 14.2598C21.824 13.6837 22.2559 12.8876 22.3776 12.0181C22.4994 11.1487 22.3028 10.2645 21.8242 9.5286C21.3455 8.79265 20.617 8.2545 19.7728 8.01332Z" fill="#3E97FF"/>
</svg>
