<svg width="750" height="1000" viewBox="0 0 750 1000" fill="none" xmlns="http://www.w3.org/2000/svg">
<g clip-path="url(#clip0_787_7343)">
<rect width="750" height="1000" fill="#006CEA"/>
<rect opacity="0.04" x="208.105" y="216.854" width="342.502" height="500.103" rx="25" transform="rotate(146.881 208.105 216.854)" fill="white"/>
<rect opacity="0.04" x="920.538" y="599" width="342.502" height="500.103" rx="25" transform="rotate(60.5631 920.538 599)" fill="white"/>
<path opacity="0.04" d="M680.744 64.541C687.754 59.4482 697.246 59.4481 704.256 64.541L930.397 228.842C937.406 233.935 940.34 242.962 937.662 251.203L851.284 517.047C848.606 525.288 840.927 530.867 832.263 530.867H552.737C544.073 530.867 536.394 525.288 533.716 517.047L447.338 251.203C444.66 242.962 447.594 233.935 454.603 228.842L680.744 64.541Z" fill="white"/>
<path opacity="0.04" d="M191.583 609.948C200.139 608.58 208.602 612.878 212.547 620.592L341.939 873.66C345.884 881.374 344.412 890.751 338.294 896.887L137.597 1098.15C131.479 1104.28 122.106 1105.78 114.381 1101.86L-139.049 973.178C-146.775 969.256 -151.096 960.804 -149.753 952.245L-105.684 671.454C-104.341 662.894 -97.6387 656.173 -89.0828 654.805L191.583 609.948Z" fill="white"/>
</g>
<defs>
<clipPath id="clip0_787_7343">
<rect width="750" height="1000" fill="white"/>
</clipPath>
</defs>
</svg>
