<svg width="115" height="115" viewBox="0 0 115 115" fill="none" xmlns="http://www.w3.org/2000/svg">
<g filter="url(#filter0_d_11_332)">
<rect x="20" y="20" width="75" height="75" rx="10" fill="#C3AEFF"/>
</g>
<path d="M58.21 58.45C57.5739 58.4515 56.9443 58.322 56.3604 58.0696C55.7765 57.8172 55.2507 57.4474 54.816 56.983C54.3812 56.5187 54.0466 55.9698 53.8331 55.3706C53.6196 54.7714 53.5318 54.1346 53.575 53.5L54.22 43H61.93L62.83 53.41C62.8839 54.0501 62.8045 54.6944 62.597 55.3024C62.3895 55.9103 62.0582 56.4686 61.6241 56.9421C61.1901 57.4157 60.6626 57.7941 60.075 58.0536C59.4874 58.3132 58.8524 58.4481 58.21 58.45Z" fill="#161616"/>
<path opacity="0.5" d="M67.735 58.45C66.5071 58.4499 65.3244 57.9863 64.4234 57.1521C63.5224 56.3178 62.9694 55.1743 62.875 53.95L61.96 43.225C61.96 43.1653 61.9837 43.1081 62.0259 43.0659C62.0681 43.0237 62.1253 43 62.185 43H65.875C67.382 42.9994 68.8373 43.5494 69.9671 44.5467C71.0969 45.5439 71.8234 46.9196 72.01 48.415L72.58 52.915C72.6719 53.6054 72.6152 54.3074 72.4138 54.9741C72.2124 55.6408 71.8709 56.2568 71.4122 56.7808C70.9535 57.3048 70.3881 57.7248 69.754 58.0127C69.1198 58.3006 68.4314 58.4497 67.735 58.45Z" fill="#161616"/>
<path opacity="0.5" d="M48.895 58.45H48.43C47.7784 58.4497 47.1343 58.3121 46.5395 58.0461C45.9447 57.7801 45.4127 57.3917 44.9782 56.9062C44.5437 56.4207 44.2164 55.849 44.0177 55.2285C43.819 54.608 43.7533 53.9526 43.825 53.305L44.335 48.565C44.5038 47.0438 45.2245 45.6372 46.3606 44.6117C47.4968 43.5861 48.9695 43.0127 50.5 43H54.22L53.5 54.1C53.4277 55.2741 52.9117 56.3767 52.0566 57.1845C51.2015 57.9922 50.0713 58.4446 48.895 58.45Z" fill="#161616"/>
<path opacity="0.4" d="M72.58 52.96L72.01 48.46C71.8336 46.9565 71.1115 45.5699 69.9807 44.5635C68.8498 43.5571 67.3889 43.0007 65.875 43H62.185C62.1527 42.9997 62.1208 43.0064 62.0914 43.0195C62.0619 43.0326 62.0356 43.052 62.0143 43.0761C61.9929 43.1003 61.977 43.1288 61.9677 43.1597C61.9583 43.1905 61.9557 43.223 61.96 43.255V43.9L61.93 43H54.22V43.9V43H50.5C48.9695 43.0127 47.4968 43.5861 46.3606 44.6117C45.2245 45.6372 44.5038 47.0438 44.335 48.565L43.825 53.305C43.7084 54.3604 43.9687 55.423 44.56 56.305V65.845C44.558 66.7839 44.7412 67.714 45.0992 68.582C45.4571 69.45 45.9827 70.2389 46.6459 70.9035C47.3091 71.5681 48.0969 72.0953 48.9642 72.4551C49.8314 72.8148 50.7611 73 51.7 73H64.72C66.6136 73 68.4297 72.2478 69.7687 70.9087C71.1077 69.5697 71.86 67.7537 71.86 65.86V56.155C72.4648 55.2064 72.7194 54.0764 72.58 52.96Z" fill="#161616"/>
<path opacity="0.3" d="M58.315 64.8101C59.4011 64.8101 60.4426 65.2415 61.2106 66.0095C61.9786 66.7774 62.41 67.819 62.41 68.9051V73.0001H54.22V68.9051C54.22 67.819 54.6514 66.7774 55.4194 66.0095C56.1874 65.2415 57.2289 64.8101 58.315 64.8101Z" fill="#161616"/>
<defs>
<filter id="filter0_d_11_332" x="0" y="0" width="115" height="115" filterUnits="userSpaceOnUse" color-interpolation-filters="sRGB">
<feFlood flood-opacity="0" result="BackgroundImageFix"/>
<feColorMatrix in="SourceAlpha" type="matrix" values="0 0 0 0 0 0 0 0 0 0 0 0 0 0 0 0 0 0 127 0" result="hardAlpha"/>
<feOffset/>
<feGaussianBlur stdDeviation="10"/>
<feComposite in2="hardAlpha" operator="out"/>
<feColorMatrix type="matrix" values="0 0 0 0 0 0 0 0 0 0 0 0 0 0 0 0 0 0 0.08 0"/>
<feBlend mode="normal" in2="BackgroundImageFix" result="effect1_dropShadow_11_332"/>
<feBlend mode="normal" in="SourceGraphic" in2="effect1_dropShadow_11_332" result="shape"/>
</filter>
</defs>
</svg>
