<svg width="20" height="20" viewBox="0 0 20 20" fill="none" xmlns="http://www.w3.org/2000/svg">
<g id="finance">
<g id="price-tag">
<g id="Group" opacity="0.3">
<path id="Vector" d="M1.05985 4.64998L0.919851 9.73998C0.898912 10.4122 1.01688 11.0816 1.26637 11.7062C1.51586 12.3308 1.89152 12.8972 2.36985 13.37L6.92985 17.94C7.34783 18.3587 7.84428 18.691 8.3908 18.9177C8.93732 19.1443 9.52318 19.261 10.1149 19.261C10.7065 19.261 11.2924 19.1443 11.8389 18.9177C12.3854 18.691 12.8819 18.3587 13.2999 17.94L18.0699 13.17C18.4886 12.752 18.8209 12.2555 19.0475 11.709C19.2742 11.1625 19.3909 10.5766 19.3909 9.98498C19.3909 9.39331 19.2742 8.80745 19.0475 8.26093C18.8209 7.71441 18.4886 7.21795 18.0699 6.79998L13.4599 2.18998C12.9797 1.7132 12.4077 1.33885 11.7786 1.08961C11.1494 0.840369 10.4763 0.721424 9.79985 0.739978L4.79985 0.909978C3.81592 0.935285 2.87927 1.33744 2.18329 2.03342C1.48732 2.72939 1.08516 3.66605 1.05985 4.64998Z" fill="#3E97FF"/>
</g>
<path id="Vector_2" d="M7.72969 10.23C9.27608 10.23 10.5297 8.9764 10.5297 7.43001C10.5297 5.88361 9.27608 4.63 7.72969 4.63C6.18329 4.63 4.92969 5.88361 4.92969 7.43001C4.92969 8.9764 6.18329 10.23 7.72969 10.23Z" fill="#3E97FF"/>
<path id="Vector_3" d="M10.5997 15C10.4506 15.0018 10.3044 14.9592 10.1796 14.8776C10.0549 14.7959 9.95727 14.6789 9.89931 14.5415C9.84135 14.4042 9.82566 14.2526 9.85423 14.1063C9.88281 13.9599 9.95435 13.8254 10.0597 13.72L14.0597 9.71995C14.2004 9.5795 14.391 9.50061 14.5897 9.50061C14.7885 9.50061 14.9791 9.5795 15.1197 9.71995C15.1905 9.7889 15.2467 9.87131 15.2851 9.96234C15.3235 10.0534 15.3433 10.1512 15.3433 10.25C15.3433 10.3487 15.3235 10.4465 15.2851 10.5376C15.2467 10.6286 15.1905 10.711 15.1197 10.78L11.1697 14.78C11.0959 14.8551 11.0068 14.9136 10.9085 14.9515C10.8102 14.9895 10.7049 15.006 10.5997 15Z" fill="#3E97FF"/>
</g>
</g>
</svg>
