<svg width="20" height="20" viewBox="0 0 20 20" fill="none" xmlns="http://www.w3.org/2000/svg">
<path opacity="0.3" d="M9 4.49999C8.99801 5.38632 8.73374 6.25223 8.24048 6.98863C7.74723 7.72503 7.04706 8.29897 6.2282 8.63814C5.40933 8.97731 4.50839 9.06654 3.6389 8.89458C2.76942 8.72262 1.97027 8.29717 1.34215 7.67183C0.714033 7.04649 0.285044 6.24924 0.109232 5.38053C-0.0665796 4.51181 0.0186519 3.61049 0.354188 2.79012C0.689724 1.96976 1.26055 1.26705 1.99476 0.77054C2.72896 0.274027 3.59369 0.00591777 4.48 -6.50318e-06C5.073 -0.00397021 5.66091 0.109573 6.20978 0.334068C6.75866 0.558562 7.25763 0.889561 7.67788 1.30795C8.09813 1.72634 8.43133 2.22384 8.65826 2.77171C8.88519 3.31959 9.00134 3.90698 9 4.49999ZM15.44 -6.50318e-06C14.5491 -0.00396591 13.6772 0.256585 12.9345 0.748639C12.1919 1.24069 11.612 1.9421 11.2683 2.76401C10.9246 3.58593 10.8327 4.49135 11.004 5.36558C11.1754 6.2398 11.6024 7.0435 12.2309 7.67483C12.8595 8.30617 13.6613 8.73675 14.5347 8.91201C15.4082 9.08727 16.314 8.99933 17.1374 8.65933C17.9609 8.31933 18.6648 7.74257 19.1602 7.00213C19.6556 6.26168 19.92 5.39086 19.92 4.49999C19.9226 3.90999 19.8087 3.32528 19.5847 2.77943C19.3608 2.23358 19.0312 1.73735 18.6149 1.31922C18.1987 0.901091 17.7039 0.569307 17.1591 0.342916C16.6142 0.116526 16.03 -1.23826e-05 15.44 -6.50318e-06ZM4.44 11C3.55264 11.0118 2.68858 11.2858 1.95649 11.7874C1.22441 12.289 0.656981 12.9958 0.325568 13.8191C-0.00584432 14.6423 -0.0864434 15.5452 0.0939068 16.4141C0.274257 17.283 0.707504 18.0792 1.33916 18.7026C1.97082 19.3259 2.77269 19.7486 3.64393 19.9174C4.51517 20.0862 5.41687 19.9937 6.23565 19.6514C7.05443 19.3091 7.75372 18.7324 8.24558 17.9937C8.73745 17.255 8.99992 16.3874 9 15.5C9.00134 14.907 8.88519 14.3196 8.65826 13.7717C8.43133 13.2238 8.09813 12.7263 7.67788 12.308C7.25763 11.8896 6.75866 11.5586 6.20978 11.3341C5.66091 11.1096 5.073 10.996 4.48 11H4.44ZM15.44 11C14.5491 10.996 13.6772 11.2566 12.9345 11.7486C12.1919 12.2407 11.612 12.9421 11.2683 13.764C10.9246 14.5859 10.8327 15.4913 11.004 16.3656C11.1754 17.2398 11.6024 18.0435 12.2309 18.6748C12.8595 19.3062 13.6613 19.7367 14.5347 19.912C15.4082 20.0873 16.314 19.9993 17.1374 19.6593C17.9609 19.3193 18.6648 18.7426 19.1602 18.0021C19.6556 17.2617 19.92 16.3909 19.92 15.5C19.9226 14.91 19.8087 14.3253 19.5847 13.7794C19.3608 13.2336 19.0312 12.7373 18.6149 12.3192C18.1987 11.9011 17.7039 11.5693 17.1591 11.3429C16.6142 11.1165 16.03 11 15.44 11Z" fill="#3E97FF"/>
<path d="M15.44 14H15.36L14.67 13.31C14.0696 12.7203 13.6766 11.9519 13.55 11.12C13.45 10.37 13.45 9.61 13.55 8.85999C13.6766 8.02806 14.0696 7.25963 14.67 6.66999L15.36 5.99999H15.44C15.7389 6.01196 16.0346 5.93426 16.2891 5.77688C16.5435 5.6195 16.7451 5.38963 16.8679 5.11681C16.9906 4.84399 17.029 4.54069 16.9781 4.24587C16.9272 3.95106 16.7893 3.67821 16.5821 3.46239C16.3749 3.24657 16.1079 3.09763 15.8154 3.03473C15.5229 2.97182 15.2183 2.99781 14.9407 3.10936C14.6631 3.22092 14.4252 3.41293 14.2576 3.66074C14.0899 3.90854 14.0002 4.20081 14 4.49999V4.57999L13.32 5.26999C12.7217 5.88237 11.9376 6.27967 11.09 6.39999C10.3433 6.50005 9.58666 6.50005 8.84 6.39999C8.00948 6.27136 7.24385 5.8745 6.66 5.26999L6 4.57999C6 4.57999 6 4.57999 6 4.49999C5.99997 4.20417 5.91248 3.91497 5.74853 3.66875C5.58457 3.42253 5.35148 3.23028 5.07855 3.11619C4.80562 3.00209 4.50506 2.97124 4.21464 3.02752C3.92423 3.08379 3.65694 3.22468 3.44639 3.43246C3.23583 3.64024 3.09142 3.90564 3.0313 4.19529C2.97119 4.48493 2.99805 4.78588 3.10852 5.06029C3.21899 5.3347 3.40814 5.57033 3.65217 5.73753C3.89619 5.90473 4.18421 5.99605 4.48 5.99999H4.56L5.25 6.68999C5.85347 7.27867 6.24993 8.04704 6.38 8.87999C6.48 9.63 6.48 10.39 6.38 11.14C6.24993 11.9729 5.85347 12.7413 5.25 13.33L4.56 14H4.48C4.18421 14.0039 3.89619 14.0952 3.65217 14.2625C3.40814 14.4297 3.21899 14.6653 3.10852 14.9397C2.99805 15.2141 2.97119 15.5151 3.0313 15.8047C3.09142 16.0943 3.23583 16.3597 3.44639 16.5675C3.65694 16.7753 3.92423 16.9162 4.21464 16.9725C4.50506 17.0287 4.80562 16.9979 5.07855 16.8838C5.35148 16.7697 5.58457 16.5775 5.74853 16.3312C5.91248 16.085 5.99997 15.7958 6 15.5C6 15.5 6 15.45 6 15.42L6.69 14.73C7.27385 14.1255 8.03948 13.7286 8.87 13.6C9.61332 13.5 10.3667 13.5 11.11 13.6C11.9436 13.728 12.7126 14.1248 13.3 14.73L13.98 15.42V15.5C13.9801 15.7983 14.0692 16.0899 14.2358 16.3374C14.4025 16.5848 14.6392 16.777 14.9156 16.8892C15.192 17.0015 15.4957 17.0288 15.7877 16.9676C16.0797 16.9064 16.3468 16.7595 16.5549 16.5457C16.763 16.3319 16.9026 16.0609 16.9559 15.7673C17.0092 15.4738 16.9737 15.171 16.854 14.8977C16.7343 14.6244 16.5358 14.393 16.284 14.2331C16.0321 14.0732 15.7382 13.992 15.44 14Z" fill="#3E97FF"/>
</svg>
