<svg width="12" height="13" viewBox="0 0 12 13" fill="none" xmlns="http://www.w3.org/2000/svg">
<g id="Tick" clip-path="url(#clip0_58_624)">
<path id="Vector" d="M5.99997 0.5C2.69161 0.5 0 3.19154 0 6.49997C0 9.80839 2.69161 12.5 5.99997 12.5C9.30833 12.5 11.9999 9.80839 11.9999 6.49997C11.9999 3.19154 9.30839 0.5 5.99997 0.5ZM9.44526 5.48652L5.67578 9.256C5.5155 9.41628 5.30245 9.50449 5.0758 9.50449C4.84916 9.50449 4.6361 9.41628 4.47582 9.256L2.55468 7.33485C2.3944 7.17458 2.30612 6.96152 2.30612 6.73488C2.30612 6.50817 2.3944 6.29511 2.55468 6.13484C2.7149 5.97456 2.92795 5.88628 3.15466 5.88628C3.3813 5.88628 3.59442 5.97456 3.75464 6.1349L5.07574 7.45594L8.24518 4.2865C8.40545 4.12623 8.61851 4.03801 8.84515 4.03801C9.0718 4.03801 9.28485 4.12623 9.44513 4.2865C9.77608 4.61745 9.77608 5.1557 9.44526 5.48652Z" fill="#88A0F2"/>
</g>
<defs>
<clipPath id="clip0_58_624">
<rect width="12" height="12" fill="white" transform="translate(0 0.5)"/>
</clipPath>
</defs>
</svg>
