<svg width="16" height="18" viewBox="0 0 16 18" fill="none" xmlns="http://www.w3.org/2000/svg">
<g id="time">
<g id="calendar">
<path id="Vector" opacity="0.3" d="M0.333496 8.075V12.8167C0.333496 14.0146 0.809358 15.1634 1.6564 16.0104C2.50344 16.8575 3.65227 17.3333 4.85016 17.3333H11.1502C11.7433 17.3333 12.3306 17.2165 12.8786 16.9895C13.4266 16.7625 13.9245 16.4298 14.3439 16.0104C14.7633 15.591 15.096 15.0931 15.323 14.5451C15.55 13.9971 15.6668 13.4098 15.6668 12.8167V8.075C15.6668 7.89377 15.5948 7.71996 15.4667 7.59181C15.3385 7.46366 15.1647 7.39166 14.9835 7.39166H1.01683C0.835598 7.39166 0.66179 7.46366 0.53364 7.59181C0.40549 7.71996 0.333496 7.89377 0.333496 8.075Z" fill="#3E97FF"/>
<path id="Vector_2" d="M15.3753 5.31666C15.4141 5.42077 15.4273 5.5327 15.4137 5.64298C15.4001 5.75326 15.3601 5.85864 15.2971 5.9502C15.2342 6.04177 15.1501 6.11681 15.052 6.169C14.9539 6.22118 14.8447 6.24896 14.7336 6.24999H1.40025C1.26443 6.25095 1.13044 6.2187 1.00994 6.15604C0.889433 6.09338 0.78607 6.00222 0.708846 5.89049C0.631621 5.77877 0.582876 5.64985 0.566854 5.51498C0.550832 5.38011 0.568018 5.24337 0.616916 5.11666C0.869704 4.51053 1.25094 3.96643 1.73433 3.52188C2.21773 3.07733 2.79178 2.7429 3.41692 2.54166V1.24166C3.41581 1.16654 3.42965 1.09196 3.45764 1.02224C3.48562 0.952527 3.52718 0.88907 3.57991 0.835565C3.63264 0.782059 3.69549 0.739572 3.76479 0.710575C3.83409 0.681577 3.90846 0.666648 3.98358 0.666656C4.13608 0.666656 4.28234 0.727237 4.39017 0.83507C4.498 0.942903 4.55858 1.08916 4.55858 1.24166V2.33332C4.66692 2.33332 4.73358 2.33332 4.82525 2.33332H7.55025V1.24166C7.55025 1.08916 7.61083 0.942903 7.71866 0.83507C7.8265 0.727237 7.97275 0.666656 8.12525 0.666656C8.27775 0.666656 8.424 0.727237 8.53184 0.83507C8.63967 0.942903 8.70025 1.08916 8.70025 1.24166V2.33332H11.1169C11.2086 2.33332 11.2919 2.33332 11.3836 2.33332V1.24166C11.3825 1.16654 11.3963 1.09196 11.4243 1.02224C11.4523 0.952527 11.4938 0.88907 11.5466 0.835565C11.5993 0.782059 11.6622 0.739572 11.7315 0.710575C11.8008 0.681577 11.8751 0.666648 11.9502 0.666656C12.1027 0.666656 12.249 0.727237 12.3568 0.83507C12.4647 0.942903 12.5253 1.08916 12.5253 1.24166V2.54166C13.1794 2.7582 13.7759 3.1205 14.2696 3.60121C14.7633 4.08192 15.1413 4.66849 15.3753 5.31666ZM5.27525 9.83332C5.13552 9.83497 4.9994 9.8779 4.88402 9.95673C4.76863 10.0356 4.67914 10.1467 4.62681 10.2763C4.57447 10.4059 4.56163 10.548 4.58989 10.6849C4.61816 10.8217 4.68627 10.9472 4.78565 11.0454C4.88504 11.1436 5.01126 11.2103 5.14843 11.2369C5.2856 11.2636 5.42759 11.2491 5.55654 11.1952C5.68549 11.1414 5.79562 11.0506 5.8731 10.9343C5.95057 10.818 5.99191 10.6814 5.99192 10.5417C5.98972 10.353 5.91325 10.1729 5.77909 10.0403C5.64492 9.90767 5.46389 9.83331 5.27525 9.83332ZM7.95025 9.83332C7.81052 9.83497 7.6744 9.8779 7.55902 9.95673C7.44363 10.0356 7.35414 10.1467 7.30181 10.2763C7.24947 10.4059 7.23663 10.548 7.26489 10.6849C7.29316 10.8217 7.36127 10.9472 7.46065 11.0454C7.56004 11.1436 7.68626 11.2103 7.82343 11.2369C7.9606 11.2636 8.10259 11.2491 8.23154 11.1952C8.36049 11.1414 8.47062 11.0506 8.5481 10.9343C8.62557 10.818 8.66691 10.6814 8.66692 10.5417C8.66472 10.353 8.58825 10.1729 8.45409 10.0403C8.31992 9.90767 8.13889 9.83331 7.95025 9.83332ZM10.6503 9.83332C10.5572 9.83332 10.4651 9.85164 10.3792 9.88724C10.2932 9.92284 10.2152 9.97501 10.1494 10.0408C10.0836 10.1066 10.0314 10.1847 9.99584 10.2706C9.96024 10.3565 9.94192 10.4486 9.94192 10.5417C9.94192 10.6347 9.96024 10.7268 9.99584 10.8127C10.0314 10.8987 10.0836 10.9767 10.1494 11.0425C10.2152 11.1083 10.2932 11.1605 10.3792 11.1961C10.4651 11.2317 10.5572 11.25 10.6503 11.25C10.7433 11.25 10.8354 11.2317 10.9213 11.1961C11.0073 11.1605 11.0853 11.1083 11.1511 11.0425C11.2169 10.9767 11.2691 10.8987 11.3047 10.8127C11.3403 10.7268 11.3586 10.6347 11.3586 10.5417C11.3586 10.4486 11.3403 10.3565 11.3047 10.2706C11.2691 10.1847 11.2169 10.1066 11.1511 10.0408C11.0853 9.97501 11.0073 9.92284 10.9213 9.88724C10.8354 9.85164 10.7433 9.83332 10.6503 9.83332ZM5.26692 12.5C5.12719 12.5016 4.99107 12.5446 4.87568 12.6234C4.7603 12.7022 4.67081 12.8134 4.61847 12.943C4.56614 13.0725 4.55329 13.2147 4.58156 13.3516C4.60982 13.4884 4.67793 13.6138 4.77732 13.7121C4.87671 13.8103 5.00293 13.8769 5.1401 13.9036C5.27727 13.9303 5.41926 13.9158 5.54821 13.8619C5.67715 13.8081 5.78729 13.7173 5.86476 13.601C5.94223 13.4847 5.98357 13.3481 5.98358 13.2083C5.98359 13.1146 5.965 13.0218 5.92888 12.9353C5.89276 12.8488 5.83984 12.7704 5.77318 12.7045C5.70652 12.6386 5.62745 12.5866 5.54054 12.5515C5.45364 12.5164 5.36064 12.4989 5.26692 12.5ZM7.94192 12.5C7.80219 12.5016 7.66607 12.5446 7.55068 12.6234C7.4353 12.7022 7.34581 12.8134 7.29347 12.943C7.24114 13.0725 7.22829 13.2147 7.25656 13.3516C7.28482 13.4884 7.35293 13.6138 7.45232 13.7121C7.55171 13.8103 7.67793 13.8769 7.8151 13.9036C7.95227 13.9303 8.09426 13.9158 8.22321 13.8619C8.35215 13.8081 8.46229 13.7173 8.53976 13.601C8.61723 13.4847 8.65857 13.3481 8.65858 13.2083C8.65859 13.1146 8.64 13.0218 8.60388 12.9353C8.56776 12.8488 8.51484 12.7704 8.44818 12.7045C8.38152 12.6386 8.30245 12.5866 8.21554 12.5515C8.12864 12.5164 8.03564 12.4989 7.94192 12.5ZM10.6336 12.5C10.4942 12.5033 10.359 12.5476 10.2447 12.6274C10.1304 12.7072 10.0422 12.8189 9.99117 12.9486C9.94011 13.0783 9.92843 13.2202 9.95762 13.3564C9.9868 13.4927 10.0555 13.6174 10.1552 13.7148C10.2549 13.8122 10.3811 13.878 10.5181 13.904C10.655 13.93 10.7966 13.9151 10.925 13.861C11.0535 13.8069 11.1631 13.7162 11.2403 13.6001C11.3174 13.484 11.3585 13.3477 11.3586 13.2083C11.3575 13.1142 11.3379 13.0212 11.3009 12.9347C11.2638 12.8482 11.2101 12.7698 11.1428 12.704C11.0755 12.6382 10.9959 12.5863 10.9085 12.5513C10.8211 12.5163 10.7277 12.4989 10.6336 12.5Z" fill="#3E97FF"/>
</g>
</g>
</svg>
