<svg width="14" height="10" viewBox="0 0 14 10" fill="none" xmlns="http://www.w3.org/2000/svg">
<g id="general">
<g id="menu">
<path id="Vector" d="M12.4266 1.94751H1.57324C1.39091 1.94751 1.21604 1.87508 1.08711 1.74615C0.958175 1.61721 0.885742 1.44235 0.885742 1.26001C0.885742 1.07767 0.958175 0.902805 1.08711 0.773874C1.21604 0.644943 1.39091 0.57251 1.57324 0.57251H12.4266C12.6089 0.57251 12.7838 0.644943 12.9127 0.773874C13.0416 0.902805 13.1141 1.07767 13.1141 1.26001C13.1141 1.44235 13.0416 1.61721 12.9127 1.74615C12.7838 1.87508 12.6089 1.94751 12.4266 1.94751Z" fill="#3E97FF"/>
<path id="Vector_2" d="M12.4266 5.61414H1.57324C1.39091 5.61414 1.21604 5.5417 1.08711 5.41277C0.958175 5.28384 0.885742 5.10897 0.885742 4.92664C0.885742 4.7443 0.958175 4.56943 1.08711 4.4405C1.21604 4.31157 1.39091 4.23914 1.57324 4.23914H12.4266C12.6089 4.23914 12.7838 4.31157 12.9127 4.4405C13.0416 4.56943 13.1141 4.7443 13.1141 4.92664C13.1141 5.10897 13.0416 5.28384 12.9127 5.41277C12.7838 5.5417 12.6089 5.61414 12.4266 5.61414Z" fill="#C9E2FF"/>
<path id="Vector_3" d="M12.4266 9.32666H1.57324C1.39091 9.32666 1.21604 9.25423 1.08711 9.1253C0.958175 8.99636 0.885742 8.8215 0.885742 8.63916C0.885742 8.45682 0.958175 8.28195 1.08711 8.15302C1.21604 8.02409 1.39091 7.95166 1.57324 7.95166H12.4266C12.6089 7.95166 12.7838 8.02409 12.9127 8.15302C13.0416 8.28195 13.1141 8.45682 13.1141 8.63916C13.1141 8.8215 13.0416 8.99636 12.9127 9.1253C12.7838 9.25423 12.6089 9.32666 12.4266 9.32666Z" fill="#3E97FF"/>
</g>
</g>
</svg>
