<svg width="20" height="21" viewBox="0 0 20 21" fill="none" xmlns="http://www.w3.org/2000/svg">
<g id="users">
<g id="user-tick">
<path id="Vector" d="M9.49004 9.96006C12.2238 9.96006 14.44 7.74387 14.44 5.01006C14.44 2.27625 12.2238 0.0600586 9.49004 0.0600586C6.75623 0.0600586 4.54004 2.27625 4.54004 5.01006C4.54004 7.74387 6.75623 9.96006 9.49004 9.96006Z" fill="#3E97FF"/>
<path id="Vector_2" d="M15.4299 11C14.6366 11.0001 13.8613 11.236 13.2025 11.6778C12.5436 12.1195 12.031 12.7472 11.7298 13.481C11.4286 14.2149 11.3523 15.0217 11.5108 15.7989C11.6692 16.5762 12.0552 17.2888 12.6196 17.8462C13.184 18.4035 13.9014 18.7805 14.6806 18.9291C15.4598 19.0778 16.2656 18.9914 16.9956 18.681C17.7255 18.3705 18.3467 17.8501 18.7802 17.1857C19.2136 16.5214 19.4398 15.7432 19.4299 14.95C19.4167 13.8978 18.9895 12.8932 18.2408 12.1538C17.492 11.4145 16.4821 10.9999 15.4299 11ZM17.5499 14.44L15.8599 16.6C15.7896 16.6863 15.7012 16.7561 15.601 16.8045C15.5008 16.8529 15.3911 16.8786 15.2799 16.88C15.1658 16.8804 15.0532 16.8544 14.9509 16.8041C14.8485 16.7538 14.7592 16.6805 14.6899 16.59L13.4799 15C13.3711 14.8478 13.324 14.66 13.3482 14.4744C13.3723 14.2889 13.4658 14.1194 13.6099 14C13.7621 13.8912 13.9499 13.8442 14.1354 13.8683C14.321 13.8924 14.4905 13.9859 14.6099 14.13L15.2399 14.93L16.3399 13.53C16.3996 13.4532 16.4739 13.3889 16.5585 13.3408C16.6431 13.2927 16.7364 13.2617 16.8329 13.2496C16.9295 13.2375 17.0275 13.2446 17.1214 13.2704C17.2152 13.2962 17.303 13.3402 17.3799 13.4C17.4567 13.4598 17.521 13.534 17.5691 13.6187C17.6172 13.7033 17.6482 13.7965 17.6603 13.8931C17.6723 13.9896 17.6653 14.0877 17.6395 14.1815C17.6137 14.2753 17.5696 14.3632 17.5099 14.44H17.5499Z" fill="#3E97FF"/>
<g id="Group" opacity="0.3">
<path id="Vector_3" d="M18.3599 18.7701C18.1369 17.523 17.5884 16.357 16.7699 15.3901L15.8599 16.5501C15.7896 16.6364 15.7012 16.7062 15.601 16.7546C15.5008 16.803 15.3912 16.8288 15.2799 16.8301C15.1659 16.8305 15.0533 16.8045 14.9509 16.7542C14.8486 16.7039 14.7592 16.6306 14.6899 16.5401L13.4799 15.0001C13.4007 14.8978 13.3505 14.7759 13.3346 14.6475C13.3188 14.519 13.3379 14.3886 13.3899 14.2701C13.3402 14.1545 13.3217 14.0278 13.3362 13.9028C13.3507 13.7778 13.3977 13.6587 13.4726 13.5575C13.5475 13.4564 13.6476 13.3766 13.7629 13.3261C13.8782 13.2757 14.0048 13.2564 14.1299 13.2701C12.6963 12.5277 11.1043 12.1434 9.48989 12.1501C4.99989 12.1401 1.25989 15.0001 0.61989 18.7701C0.605079 18.9328 0.625705 19.0967 0.680346 19.2506C0.734987 19.4045 0.822345 19.5448 0.936401 19.6617C1.05046 19.7786 1.1885 19.8694 1.34102 19.9278C1.49354 19.9862 1.65692 20.0109 1.81989 20.0001H17.1699C17.3321 20.0094 17.4943 19.9836 17.6456 19.9245C17.7969 19.8654 17.9337 19.7744 18.0466 19.6577C18.1596 19.5409 18.246 19.4012 18.3001 19.2481C18.3541 19.0949 18.3745 18.9319 18.3599 18.7701Z" fill="#3E97FF"/>
</g>
</g>
</g>
</svg>
