<svg width="37" height="12" viewBox="0 0 37 12" fill="none" xmlns="http://www.w3.org/2000/svg">
<g id="&#240;&#159;&#166;&#134; icon &#34;Visa&#34;">
<path id="Vector" d="M19.5143 3.89961C19.4938 5.52232 20.9605 6.42793 22.0654 6.9663C23.2007 7.51876 23.582 7.87299 23.5776 8.36695C23.569 9.12307 22.672 9.45671 21.8325 9.46971C20.3679 9.49246 19.5165 9.07432 18.8395 8.75801L18.3119 11.2267C18.9911 11.5398 20.2488 11.8128 21.553 11.8247C24.6143 11.8247 26.6173 10.3136 26.6281 7.97048C26.64 4.99694 22.515 4.83229 22.5431 3.50313C22.5529 3.10016 22.9374 2.67011 23.7802 2.5607C24.1973 2.50546 25.3488 2.46321 26.6541 3.06442L27.1665 0.675837C26.4645 0.420188 25.5622 0.175372 24.4388 0.175372C21.5574 0.175372 19.5306 1.7071 19.5143 3.89961ZM32.0899 0.38119C31.5309 0.38119 31.0597 0.707251 30.8495 1.20772L26.4764 11.6492H29.5355L30.1443 9.96692H33.8826L34.2358 11.6492H36.932L34.5792 0.38119H32.0899ZM32.5177 3.42514L33.4006 7.65634H30.9828L32.5177 3.42514ZM15.8053 0.38119L13.3939 11.6492H16.309L18.7192 0.38119H15.8053ZM11.4928 0.38119L8.45863 8.05064L7.2313 1.52944C7.08723 0.801494 6.51852 0.38119 5.88698 0.38119H0.92675L0.857422 0.708333C1.87568 0.929317 3.0326 1.28571 3.73347 1.66702C4.16244 1.89992 4.28484 2.10357 4.42567 2.65711L6.75033 11.6492H9.83111L14.5541 0.38119H11.4928Z" fill="url(#paint0_linear_106_830)"/>
</g>
<defs>
<linearGradient id="paint0_linear_106_830" x1="4246.62" y1="31.2223" x2="4337.88" y2="-1018.61" gradientUnits="userSpaceOnUse">
<stop stop-color="#222357"/>
<stop offset="1" stop-color="#254AA5"/>
</linearGradient>
</defs>
</svg>
